<svg version="1.1" id="Layer_1" xmlns="http://www.w3.org/2000/svg" xmlns:xlink="http://www.w3.org/1999/xlink" x="0px" y="0px" viewBox="0 0 198.98 69.095" enable-background="new 0 0 198.98 69.095" xml:space="preserve">
		<path fill="#B3B3B3" d="M20.316,52.495c-1.63,1.903-2.606,3.95-2.87,6.105c-0.334,2.768,1.914,5.169,3.02,6.167
			c3.154,2.453,8.238,4.144,18.486,4.327L33.3,58.012C24.221,58.655,21.488,55.656,20.316,52.495"></path>
		<path fill="#1D4796" d="M45.294,20.015C18.273,23.692,8.173,33.447,8.215,42.755c0.118,0.674,0.311,1.34,0.589,2.007c0.738,1.764,4.076,9.506,4.992,11.479c-0.05-9.658,13.922-17.398,33.324-20.709c1.549-0.263,4.402-1.534,2.988-4.676C48.982,28.354,46.324,22.347,45.294,20.015"></path>
		<path fill="#41B0CE" d="M44.084,15.387l5.539-0.767c0,0,3.386-0.379,1.501-4.236C49.208,6.469,45.952,0,45.952,0
			C10.417,3.335-3.82,15.201,0.866,26.416c0.625,1.502,3.118,7.292,4.424,10.227C7.02,29.692,14.571,19.404,44.084,15.387"></path>
		<path fill="#1D4796" d="M114.217,56.374c0-4.529,4.26-8.279,9.427-8.279c5.07,0,9.372,3.793,9.372,8.279v4.311
			c0,4.655-4.256,8.409-9.372,8.409c-5.218,0-9.427-3.708-9.427-8.363V56.374z M128.476,56.374c0-2.242-2.202-4.185-4.787-4.185
			c-2.628,0-4.876,1.942-4.876,4.185v4.311c0,2.414,2.195,4.354,4.831,4.354c2.583,0,4.832-1.981,4.832-4.309V56.374z"></path>
		<path fill="#1D4796" d="M175.127,53.345c-0.281,0.369-0.838,0.493-1.229,0.273c0,0-2.102-1.552-5.306-1.47
			c-2.084,0.051-3.335,0.82-3.335,2.157c0,1.294,0.981,1.942,3.071,2.028c4.261,0.128,5.46,0.387,6.925,1.505
			c1.508,1.123,2.396,2.892,2.396,4.746c0,3.965-3.417,6.51-8.613,6.51c-3.595,0-7.147-1.336-9.32-3.577l2.413-2.315
			c0.33-0.315,0.825-0.284,1.211-0.042c0,0,2.446,1.942,5.605,1.885c3.045-0.063,4.443-0.864,4.443-2.46
			c0-1.465-0.979-2.026-3.6-2.072c-3.685-0.043-5.194-0.431-6.657-1.634c-1.33-1.127-2.133-2.765-2.133-4.528
			c0-3.753,3.107-6.3,7.812-6.3c3.196,0,5.91,0.862,8.354,2.632L175.127,53.345z"></path>
		<path fill="#1D4796" d="M107.549,63.647c0,0-1.927,1.308-3.696,1.308c-3.545,0-5.89-2.502-5.89-6.382
			c0-3.882,2.345-6.384,5.89-6.384c1.77,0,3.696,1.31,3.696,1.31c0.828,0.594,1.413-0.165,1.413-0.165l2.05-2.677
			c-2.036-1.727-4.401-2.607-7.066-2.607c-2.011,0-3.964,0.519-5.647,1.512c-3.311,1.975-4.753,4.682-4.825,9.012
			c0.072,4.324,1.515,7.036,4.825,9.008c1.684,0.994,3.637,1.514,5.647,1.514c2.665,0,5.03-0.88,7.066-2.605l-2.05-2.679
			C108.962,63.811,108.377,63.052,107.549,63.647"></path>
		<path fill="#1D4796" d="M148.28,48.307c-3.359,0-5.434,1.976-5.434,1.976c-0.396,0.266-0.596,0.137-0.596-0.341v-8.698
			c0-0.478-0.391-0.865-0.868-0.865h-3.677v28.717h3.677c0.478,0,0.868-0.391,0.868-0.87V56.978c0-2.846,1.769-4.614,4.591-4.614
			c2.63,0,4.593,1.769,4.593,4.31v12.422h3.675c0.477,0,0.866-0.391,0.866-0.87V55.594C155.975,51.414,152.728,48.307,148.28,48.307"></path>
		<path fill="#1D4796" d="M85.188,48.569c-0.478,0-0.871,0.39-0.871,0.868v19.657h3.636c0.476,0,0.868-0.391,0.868-0.87V48.569H85.188
			z"></path>
		<path fill="#1D4796" d="M87.953,40.378h-3.636v3.14c0,0.479,0.394,0.869,0.871,0.869h3.633v-3.144
			C88.821,40.766,88.428,40.378,87.953,40.378"></path>
		<path fill="#1D4796" d="M80.625,40.378H60.16v28.717h3.968c0.476,0,0.865-0.391,0.865-0.87V56.716h11.072
			c0.478,0,0.866-0.391,0.866-0.864v-3.016h-11.89v-8.362h14.728c0.478,0,0.868-0.391,0.868-0.867L80.625,40.378z"></path>
		<path fill="#1D4796" d="M198.98,54.619v14.273h-3.674c-0.476,0-0.867-0.389-0.867-0.866v-0.589l-0.006,0.004v-0.568
			c-1.085,1.578-2.645,2.222-5.35,2.222c-0.31,0-0.911-0.011-0.911-0.011c-4.441-0.267-7.466-2.732-7.466-6.316
			c0-2.455,0.903-6.123,7.655-6.123h5.563c0.229-0.092,0.399-0.269,0.473-0.485v-0.982c0,0-0.015-0.562-0.063-0.906
			c-0.042-0.271-0.234-1.199-1.549-1.714c-0.567-0.181-1.346-0.295-2.413-0.276c-0.302,0.006-0.587-0.004-0.851-0.021
			c-2.613,0.258-4.271,1.414-4.271,1.414c-0.394,0.219-0.946,0.095-1.232-0.271l-1.832-2.396c2.306-1.661,4.639-2.794,7.593-2.887
			c0.006-0.004,0.011-0.008,0.013-0.01c0.075,0.002,0.146,0.002,0.218,0.006C197.944,48.116,198.98,52.769,198.98,54.619
			M194.385,60.332h-5.93c-2.343,0-3.394,0.702-3.394,2.264c0,1.682,1.435,2.5,4.395,2.5c4.027,0,4.929-0.545,4.929-3.163V60.332z"></path>
</svg>