<svg height="500" viewBox="0 0 1477 500" width="1477" xmlns="http://www.w3.org/2000/svg"><g fill="none" fill-rule="evenodd"><rect fill="#000" height="500" rx="60" width="1477"/><g fill="#fff"><g transform="translate(131 88)"><path d="m192.340766 150.55423c-.32181-35.765372 29.284771-53.1653419 30.638595-53.9754171-16.767445-24.4465139-42.756431-27.7866867-51.889196-28.0530127-21.827641-2.2970624-43.000563 13.0610743-54.119677 13.0610743-11.341051 0-28.4635984-12.839136-46.9177758-12.4618407-23.7474079.3661984-45.963441 14.1152818-58.1478587 35.4657552-25.1456198 43.533216-6.3918257 107.506957 17.6995868 142.695289 12.0512547 17.244613 26.1332457 36.475575 44.5652291 35.798663 18.0324944-.732397 24.7683246-11.496409 46.5293836-11.496409 21.561315 0 27.886559 11.496409 46.684741 11.052532 19.353028-.28852 31.537446-17.300098 43.167017-34.700068 13.926635-19.730323 19.519482-39.205417 19.74142-40.204139-.443876-.14426-37.574169-14.315027-37.951465-57.182427"/><path d="m156.830624 45.3776258c9.698707-12.1289331 16.334665-28.6300525 14.492577-45.37530424-14.037604.6214275-31.592931 9.70980466-41.702224 21.57241174-8.944117 10.4532983-16.9339 27.5869421-14.869873 43.6996694 15.768723 1.1762735 31.959129-7.9564914 42.07952-19.8967769"/></g><g transform="translate(460 219)"><path d="m124.528963 149.610128h-25.2011042l-13.804568-43.377859h-47.9830804l-13.1498498 43.377859h-24.53528923l47.55030053-147.67780644h29.3624493zm-43.1670171-61.5768072-12.4840346-38.5506987c-1.3205334-3.9505034-3.8062434-13.2275282-7.446033-27.8310744h-.4438768c-1.4647934 6.2808565-3.8062434 15.5578813-7.0132532 27.8310744l-12.2731931 38.5506987z"/><path d="m246.572885 95.0576709c0 18.1101731-4.915935 32.4251991-14.758903 42.9339821-8.810954 9.354703-19.763614 14.026506-32.824688 14.026506-14.104185 0-24.24677-5.026904-30.40556-15.114004v55.87299h-23.658633v-114.6533734c0-11.3743426-.299616-23.0372051-.876656-34.9996844h20.806724l1.320533 16.8895116h.443877c7.88991-12.7281668 19.863486-19.0867017 35.931826-19.0867017 12.561713 0 23.048302 4.960323 31.437573 14.8920661 8.378175 9.9539369 12.583907 23.0261082 12.583907 39.2387077zm-24.102509.8655598c0-10.364523-2.330353-18.9091511-7.013254-25.6338843-5.115679-7.0021563-11.984673-10.5198798-20.595882-10.5198798-5.83698 0-11.141308 1.9530578-15.879692 5.8147858-4.749482 3.872825-7.856619 8.9441172-9.310316 15.2360707-.732397 2.9184898-1.098595 5.3043275-1.098595 7.1908039v17.777265c0 7.723456 2.374741 14.259542 7.124223 19.608257 4.749481 5.326522 10.919368 8.000879 18.509661 8.000879 8.910827 0 15.846402-3.451142 20.806725-10.297941 4.97142-6.868993 7.45713-15.92408 7.45713-27.1763563z"/><path d="m369.049587 95.0576709c0 18.1101731-4.915936 32.4251991-14.758903 42.9339821-8.822051 9.354703-19.763614 14.026506-32.835785 14.026506-14.093088 0-24.235673-5.026904-30.40556-15.114004v55.87299h-23.658633v-114.6533734c0-11.3743426-.299617-23.0372051-.876656-34.9996844h20.806724l1.320533 16.8895116h.443877c7.878813-12.7281668 19.852389-19.0867017 35.931826-19.0867017 12.550616 0 23.048302 4.960323 31.44867 14.8920661 8.367077 9.9539369 12.583907 23.0261082 12.583907 39.2387077zm-24.113607.8655598c0-10.364523-2.34145-18.9091511-7.02435-25.6338843-5.104583-7.0021563-11.962479-10.5198798-20.573689-10.5198798-5.836979 0-11.141307 1.9530578-15.901885 5.8147858-4.738385 3.872825-7.845523 8.9441172-9.299219 15.2360707-.7213 2.9184898-1.109692 5.3043275-1.109692 7.1908039v17.777265c0 7.723456 2.385838 14.259542 7.113125 19.608257 4.749482 5.315425 10.919369 8.000879 18.531856 8.000879 8.921924 0 15.857498-3.451142 20.806724-10.297941 4.97142-6.868993 7.45713-15.92408 7.45713-27.1763563z"/><path d="m505.985575 108.196424c0 12.561713-4.383283 22.781976-13.127656 30.671886-9.609933 8.611209-23.026108 12.927911-40.226334 12.927911-15.890789 0-28.630052-3.06275-38.239985-9.199346l5.470782-19.719227c10.37562 6.136597 21.772156 9.210444 34.178512 9.210444 8.921923 0 15.857498-2.01964 20.806724-6.025628 4.97142-4.028182 7.468227-9.387994 7.468227-16.090533 0-6.003434-2.064027-11.0414351-6.147693-15.1361985-4.094764-4.0725695-10.863885-7.8899098-20.362848-11.3743426-25.855822-9.6432231-38.794831-23.7585049-38.794831-42.3014575 0-12.1178362 4.571931-22.0384824 13.682502-29.7952292 9.121668-7.74564986 21.21731-11.6184748 36.264733-11.6184748 13.43837 0 24.635162 2.34145004 33.523795 7.01325319l-5.936852 19.28644631c-8.367078-4.5275432-17.810556-6.7913148-28.374824-6.7913148-8.344883 0-14.903163 2.0529301-19.574966 6.1365965-3.939406 3.6508866-5.947949 8.1007513-5.947949 13.3828851 0 5.8258828 2.274869 10.6641397 6.813509 14.4481893 3.928309 3.5066266 11.096919 7.31287 21.461442 11.3965364 12.71707 5.1267769 22.04958 11.0969196 28.041916 17.954816 6.025627 6.8578963 9.021796 15.4136213 9.021796 25.6227876"/><path d="m584.407506 60.8791585h-26.077761v51.7005485c0 13.14985 4.594124 19.708129 13.804568 19.708129 4.227926 0 7.734553-.355101 10.508782-1.098595l.654719 17.965913c-4.660707 1.742216-10.797303 2.618873-18.387596 2.618873-9.354703 0-16.64538-2.863005-21.927513-8.555725-5.25994-5.703817-7.88991-15.258264-7.88991-28.707731v-53.6758002h-15.524591v-17.7550713h15.524591v-19.4972878l23.23695-7.0132532v26.510541h26.077761z"/><path d="m701.835109 95.4904508c0 16.3679562-4.671803 29.8063262-14.026506 40.3151092-9.776387 10.808399-22.781976 16.212599-38.994576 16.212599-15.646657 0-28.086303-5.182261-37.363328-15.546784s-13.915537-23.436694-13.915537-39.2054171c0-16.5011194 4.804966-30.0171675 14.348317-40.5259504 9.565544-10.5087829 22.460165-15.7798197 38.672764-15.7798197 15.63556 0 28.175079 5.2044553 37.685139 15.5578813 9.077281 10.0649061 13.593727 23.0372051 13.593727 38.9723817zm-24.524192.543749c0-9.7541923-2.108415-18.1212697-6.336341-25.1234259-4.960324-8.4558528-12.073449-12.6726822-21.261698-12.6726822-9.465673 0-16.756349 4.2168294-21.694478 12.6726822-4.250121 7.0021562-6.347438 15.5134936-6.347438 25.5673027 0 9.7652894 2.097317 18.1545604 6.347438 25.1234264 5.11568 8.466949 12.250999 12.694876 21.50583 12.694876 9.032892 0 16.123824-4.327799 21.261698-12.894621 4.338895-7.16861 6.524989-15.591172 6.524989-25.3675582z"/><path d="m778.770053 63.9308114c-2.34145-.4327798-4.849354-.6436213-7.45713-.6436213-8.32269 0-14.758903 3.1182344-19.286447 9.4212847-3.939406 5.5484598-5.903561 12.561713-5.903561 21.0286627v55.8729905h-23.658633v-72.9511498c0-12.2620962-.233035-23.458888-.688009-33.5237941h20.60698l.86556 20.3739444h.654718c2.507904-7.0021563 6.436214-12.6504884 11.829316-16.8673178 5.282134-3.8173404 10.963757-5.7149136 17.100354-5.7149136 2.186093 0 4.161344.1664538 5.914658.4327798z"/><path d="m884.579181 91.3291059c0 4.2390233-.277423 7.8122314-.86556 10.7307211h-70.964801c.25523 10.51988 3.706372 18.576244 10.286845 24.124703 5.98124 4.949227 13.726889 7.434937 23.214756 7.434937 10.508783 0 20.096521-1.664538 28.718828-5.038002l3.706371 16.423441c-10.076003 4.383283-21.982998 6.580473-35.698791 6.580473-16.512216 0-29.473418-4.86045-38.9058-14.559158-9.399091-9.709805-14.126378-22.770879-14.126378-39.1055448 0-16.0461458 4.372186-29.4179339 13.160946-40.0820736 9.18825-11.3854396 21.605703-17.0781593 37.230166-17.0781593 15.347039 0 26.965514 5.6927197 34.844327 17.0781593 6.258663 9.0217956 9.399091 20.2074906 9.399091 33.4905033zm-22.560037-6.1365965c.166453-7.0243501-1.387115-13.0610744-4.594125-18.1878512-4.094764-6.5915703-10.397814-9.8762585-18.84257-9.8762585-7.74565 0-14.037603 3.2070098-18.831472 9.6432231-3.939407 5.11568-6.280857 11.2744704-7.002157 18.3986928z"/></g><g transform="translate(469 92)"><path d="m60.9543125 76.0776935h-12.3952592l-6.7802178-21.3171826h-23.5809542l-6.4695041 21.3171826h-12.06235166l23.37011266-72.5849512h14.4259955zm-21.2173102-30.2612998-6.1365966-18.9535387c-.6436213-1.9419609-1.8309917-6.4584072-3.6619835-13.671405h-.2219384c-.7545905 3.1182344-1.8309917 7.6457776-3.451142 13.671405l-6.0256273 18.9535387z"/><path d="m119.390691 23.7446206-19.8190982 52.3330729h-11.3077611l-19.1754771-52.3330729h12.4951315l8.9441172 27.6757175c1.5091811 4.6274155 2.7964237 9.0439895 3.7618558 13.2386251h.3218106c.8655598-3.7618558 2.1528024-8.1784298 3.7618558-13.2386251l8.8331475-27.6757175z"/><path d="m161.58118 76.0776935-.86556-6.0256274h-.321811c-3.551014 4.8493539-8.722179 7.2129978-15.291555 7.2129978-9.3658 0-16.046146-6.5693764-16.046146-15.4025245 0-12.9168144 11.196792-19.59716 30.583111-19.59716v-.965432c0-6.8911871-3.661984-10.3423291-10.874982-10.3423291-5.171164 0-9.698707 1.2983396-13.671405 3.8839219l-2.363643-7.6457776c4.849353-3.0183621 10.874981-4.5275432 17.988106-4.5275432 13.671405 0 20.573689 7.2129977 20.573689 21.6500901v19.2753494c0 5.2821337.221939 9.3768971.754591 12.4951315zm-1.620151-26.0666642c-12.927911 0-19.386318 3.1293313-19.386318 10.5531705 0 5.4929753 3.340173 8.1784298 7.967588 8.1784298 5.925755 0 11.41873-4.5164463 11.41873-10.6530428z"/><path d="m197.191195 15.122314c-3.872825 0-6.891187-3.0183621-6.891187-7.00215622 0-3.98379414 3.118234-6.89118708 7.113125-6.89118708 3.983794 0 7.212998 2.90739294 7.102029 6.89118708 0 4.20573252-3.007266 7.00215622-7.323967 7.00215622zm-5.592848 8.6223066h11.629572v52.3330729h-11.629572z"/><path d="m223.890383-.26911345h11.629572v76.34680695h-11.629572z"/><path d="m284.945635 76.0776935-.876657-6.0256274h-.310714c-3.551014 4.8493539-8.722178 7.2129978-15.291555 7.2129978-9.3658 0-16.046146-6.5693764-16.046146-15.4025245 0-12.9168144 11.196792-19.59716 30.583111-19.59716v-.965432c0-6.8911871-3.661984-10.3423291-10.874981-10.3423291-5.171165 0-9.698708 1.2983396-13.671405 3.8839219l-2.374741-7.6568745c4.849354-3.0183622 10.874981-4.5275432 17.988107-4.5275432 13.671405 0 20.584786 7.2129977 20.584786 21.6500901v19.2753494c0 5.2821337.221938 9.3768971.732396 12.4951315zm-1.62015-26.0666642c-12.927912 0-19.386319 3.1293313-19.386319 10.5531705 0 5.4929753 3.340173 8.1784298 7.967588 8.1784298 5.925755 0 11.418731-4.5164463 11.418731-10.6530428z"/><path d="m341.761863 77.2650639c-7.423839 0-12.905717-3.1293314-16.467828-9.2659279h-.221939l-.665815 8.0785575h-9.898452c.310713-4.1946356.421683-8.9441172.421683-14.1041849v-62.24262205h11.651765v31.67060855h.210842c3.451142-5.8147859 9.043989-8.7221788 16.689767-8.7221788 12.6061 0 21.439248 10.7751089 21.439248 26.4883471 0 16.2458903-9.809676 28.0974005-23.159271 28.0974005zm-2.363644-45.4529828c-6.691442 0-12.816942 5.8147859-12.816942 13.8933434v9.1549587c0 7.2129977 5.504072 13.1387528 12.606101 13.1387528 8.711082 0 13.90444-7.1020286 13.90444-18.4097896-.011097-10.5531706-5.4042-17.7772653-13.693599-17.7772653z"/><path d="m382.132457-.26911345h11.618475v76.34680695h-11.618475z"/><path d="m457.047761 52.7075808h-34.910909c.233035 9.9095492 6.780218 15.5023967 16.467829 15.5023967 5.182261 0 9.920646-.8655598 14.115281-2.4746131l1.808798 8.0785575c-4.949226 2.1528024-10.764012 3.2292036-17.54423 3.2292036-16.379053 0-26.066664-10.3423291-26.066664-26.3773779 0-16.0461458 9.920646-28.1084974 24.768325-28.1084974 13.338497 0 21.761059 9.9095492 21.761059 24.8792938.033291 2.0418332-.066581 3.8728249-.399489 5.2710368zm-10.653043-8.289399c0-8.0785575-4.10586-13.7823741-11.540796-13.7823741-6.680346 0-11.940286 5.8147858-12.71707 13.7823741z"/><path d="m527.535394 77.2650639c-15.291555 0-25.201104-11.4187303-25.201104-26.921127 0-16.157115 10.120391-27.6757175 26.077761-27.6757175 15.05852 0 25.201105 10.8749812 25.201105 26.8212547 0 16.3568595-10.453299 27.7755898-26.077762 27.7755898zm.443877-46.0966041c-8.400368 0-13.782374 7.8566191-13.782374 18.8425695 0 10.7751089 5.492975 18.631728 13.671405 18.631728s13.671405-8.4003681 13.671405-18.8536664c0-10.6530428-5.382006-18.6206311-13.560436-18.6206311z"/><path d="m616.133201 76.0776935h-11.607378v-30.0504583c0-9.254831-3.562112-13.8933434-10.564268-13.8933434-6.891187 0-11.640668 5.9257551-11.640668 12.8169422v31.1268595h-11.607378v-37.3744253c0-4.6274155-.133163-9.5877385-.443877-14.9697445h10.23136l.543749 8.0785574h.332907c3.096041-5.5928474 9.465673-9.1549586 16.578798-9.1549586 10.963757 0 18.176755 8.4003681 18.176755 22.0717731z"/><path d="m692.224778 32.4667994h-12.794748v25.4119459c0 6.4695041 2.252675 9.6987077 6.769121 9.6987077 2.041833 0 3.78405-.2219383 5.171165-.543749l.32181 8.833148c-2.263771.8655597-5.29323 1.2983396-9.032892 1.2983396-9.177153 0-14.636837-5.0601954-14.636837-18.3099174v-26.3884748h-7.623584v-8.7221788h7.623584v-9.5877386l11.407633-3.451142v13.0277837h12.794748z"/><path d="m753.812682 76.0776935h-11.640668v-29.8285199c0-9.3658002-3.562112-14.1041849-10.553171-14.1041849-6.025627 0-11.618475 4.0947634-11.618475 12.3841623v31.5485425h-11.640669v-76.34680695h11.640669v31.43757325h.221939c3.650886-5.7038167 8.944117-8.5113373 15.724335-8.5113373 11.085822 0 17.86604 8.6112096 17.86604 22.2937115z"/><path d="m813.236687 52.7075808h-34.899812c.221938 9.9095492 6.76912 15.5023967 16.467828 15.5023967 5.193359 0 9.920646-.8655598 14.093088-2.4746131l1.819895 8.0785575c-4.938129 2.1528024-10.764012 3.2292036-17.555327 3.2292036-16.367956 0-26.055567-10.3423291-26.055567-26.3773779 0-16.0461458 9.909549-28.1084974 24.757228-28.1084974 13.349594 0 21.761059 9.9095492 21.761059 24.8792938.044388 2.0418332-.066582 3.8728249-.388392 5.2710368zm-10.66414-8.289399c0-8.0785575-4.083666-13.7823741-11.518603-13.7823741-6.680345 0-11.951382 5.8147858-12.717069 13.7823741z"/></g></g></g></svg>