<?xml version="1.0" encoding="UTF-8"?>
<svg xmlns="http://www.w3.org/2000/svg" xmlns:xlink="http://www.w3.org/1999/xlink" viewBox="0 0 32 32" version="1.1" fill="#FFFFFF"><g id="surface1" fill="#FFFFFF"><path style=" " d="M 16 3 C 8.832031 3 3 8.832031 3 16 C 3 23.167969 8.832031 29 16 29 C 23.167969 29 29 23.167969 29 16 C 29 8.832031 23.167969 3 16 3 Z M 16 5 C 22.085938 5 27 9.914063 27 16 C 27 22.085938 22.085938 27 16 27 C 14.367188 27 12.828125 26.632813 11.4375 26 L 14.625 22.78125 C 15.078125 22.875 15.519531 23 16 23 C 19.855469 23 23 19.855469 23 16 C 23 14.972656 22.769531 14 22.375 13.125 L 21.78125 11.8125 L 20.75 12.8125 L 17 16.5625 L 15.4375 15 L 19.1875 11.25 L 20.1875 10.21875 L 18.875 9.625 C 18 9.230469 17.027344 9 16 9 C 12.144531 9 9 12.144531 9 16 C 9 16.480469 9.125 16.921875 9.21875 17.375 L 6 20.5625 C 5.367188 19.171875 5 17.632813 5 16 C 5 9.914063 9.914063 5 16 5 Z M 16 11 C 16.167969 11 16.308594 11.078125 16.46875 11.09375 L 13.28125 14.28125 L 12.59375 15 L 13.28125 15.71875 L 16.28125 18.71875 L 17 19.40625 L 17.71875 18.71875 L 20.90625 15.53125 C 20.921875 15.691406 21 15.832031 21 16 C 21 18.773438 18.773438 21 16 21 C 15.496094 21 15.023438 20.921875 14.5625 20.78125 L 13.96875 20.625 L 9.625 24.96875 C 8.621094 24.253906 7.746094 23.378906 7.03125 22.375 L 11.375 18.03125 L 11.21875 17.4375 C 11.078125 16.976563 11 16.503906 11 16 C 11 13.226563 13.226563 11 16 11 Z " fill="#FFFFFF"/></g></svg>
