<svg height="500" viewBox="0 0 1477 500" width="1477" xmlns="http://www.w3.org/2000/svg" xmlns:xlink="http://www.w3.org/1999/xlink"><defs><linearGradient id="a" x1="58.917088%" x2="90.810372%" y1="9.590265%" y2="60.851469%"><stop offset="0" stop-color="#ff177b"/><stop offset="1" stop-color="#ffec73"/></linearGradient><linearGradient id="b" x1="37.102974%" x2="0%" y1="-44.035246%" y2="101.060094%"><stop offset="0" stop-color="#064aa2"/><stop offset="1" stop-color="#63ffd4"/></linearGradient><path id="c" d="m139 127-134-127c-3.12621746.72618685-5 3.06462999-5 7v120 123c0 3.338867 1.34597157 5.325411 3 6z"/><linearGradient id="d" x1="78.645313%" x2="2.49517%" y1="50%" y2="100%"><stop offset="0" stop-color="#ff4521"/><stop offset="1" stop-color="#8a33db"/></linearGradient><linearGradient id="e" x1="0%" x2="64.224437%" y1="-24.186337%" y2="100%"><stop offset="0" stop-color="#00a3b5"/><stop offset="1" stop-color="#d6ffa1"/></linearGradient><path id="f" d="m7.12902383 1.14687426c-2.57961318-1.38157709-5.14265719-1.7767967-7.21598892-1.21821619l134.11125209 127.18474493 37.102684-35.1113875-55.926971-30.9794574s-52.7129833-29.2054351-84.5413922-46.8402544z"/><mask id="g" fill="#fff"><use fill="none" xlink:href="#c"/></mask><mask id="h" fill="#fff"><path d="m5.53437056 127.785198 77.45207744-42.547113c19.072774-10.5684962 34.209403-18.955992 34.209403-18.955992l56.324348-30.3374216-37.498169-36.43670655-135.99841345 129.01605215c1.51582793.487511 4.18751949.221037 6.27186596-.807699" fill="none"/></mask><mask id="i" fill="#fff"><use fill="none" xlink:href="#f"/></mask></defs><g fill="none" fill-rule="evenodd"><rect fill="#000" height="500" rx="60" width="1477"/><g transform="translate(60 179)"><path d="m120.179253 61.0225581s-101.9053941-56.46031004-107.8904563-59.77740306c-5.99502077-3.31709302-11.96016599-1.30492248-11.96016599 5.62810077v120.53100819 122.981472c0 5.189807 4.26224066 7.441047 9.47053941 4.562248 5.19834028-2.878798 110.38008288-61.162015 110.38008288-61.162015s14.288757-7.912383 21.433135-11.868574c11.497946-6.366974 34.493836-19.100922 34.493836-19.100922s47.452282-26.297675 53.765975-29.784109c6.303735-3.496395 5.696266-8.287752.378423-11.047015-5.3278-2.749302-54.144398-29.9833335-54.144398-29.9833335z" fill="url(#a)"/><use fill="url(#b)" xlink:href="#c"/><path d="m176 92-56-31c-.196119.451092-102.0617703-56.11291779-108-59-6.03718115-3.75928874-12-1.74342247-12 5v121c0-.04528 0 117.952753 0 123 0 5.361409 4.26057841 7.616784 9 5 5.6631589-3.151388 110.803881-61.541653 111-62l56-31c-.290959.43197 47.142817-25.914005 53-29 6.755324-3.90966 6.148092-8.709816 1-11-5.4934-3.2285-54.290959-30.5125511-54-31" mask="url(#g)"/><path d="m117.016598-66.503876c-.196119.4510921-102.0617708-56.112918-108.00000049-59-6.03718115-3.759289-12-1.743422-12 5v121.00000003c0-.04528035 0 117.95275297 0 122.99999997 0 5.361409 4.26057841 7.616784 9 5 5.66315889-3.151388 110.80388149-61.5416527 111.00000049-62l56-31c-.290959.43197 47.142817-25.91400492 53-28.99999997 6.755323-3.90965965 6.148091-8.70981645 1-11-5.4934-3.22849984-54.290959-30.51255113-54-31.00000003z" fill="url(#d)" mask="url(#h)" transform="translate(2.983402 127.503876)"/><g transform="translate(4.979253)"><use fill="url(#e)" xlink:href="#f"/><path d="m171.020747 92-56-31c-.196119.451092-102.0617704-56.11291779-108.00000011-59-6.03718115-3.75928874-12-1.74342247-12 5v121c0-.04528 0 117.952753 0 123 0 5.361409 4.26057841 7.616784 9 5 5.66315888-3.151388 110.80388111-61.541653 111.00000011-62l56-31c-.290959.43197 47.142817-25.914005 53-29 6.755324-3.90966 6.148092-8.709816 1-11-5.4934-3.2285-54.290959-30.5125511-54-31" mask="url(#i)"/></g></g><g fill="#fff"><g transform="translate(347 201)"><path d="m664.61527 147.869801-11.073697 10.510567c-2.559163 1.414752-5.104604 3.057244-7.643184 4.223551-7.691211 3.512724-15.512782 4.396081-22.463002 4.396081-7.396187 0-18.991322-.483086-30.819733-9.088915-16.432159-11.642369-23.615654-31.655924-23.615654-49.095323 0-36.1072156 29.221113-53.815762 53.056321-53.815762 8.329286 0 16.884987 2.0979728 23.842068 6.5216588 11.567691 7.6948672 14.559099 17.6947439 16.219467 23.0500955l-54.428526 22.1184297-17.824947 1.394048c5.770123 29.60626 25.680823 46.82482 47.684136 46.82482 10.991365 0 19.149126-3.609342 26.634506-7.329103 0 0 1.502565-.786739.432245.289852zm-33.255774-59.3922651c4.368217-1.6257527 6.640504-3.0291802 6.640504-6.2945808 0-9.365447-10.343992-20.1829551-22.688953-20.1829551-9.143411 0-26.311047 7.295044-26.311047 32.6262158 0 3.9532191.46124 8.1635012.69186 12.3737842z"/><path d="m551.026121 146.60314c0 9.025439 1.600224 10.429855 9.184193 11.138947 3.95269.468139 7.891704.674671 11.789686 1.142809l-8.534529 5.115104h-40.668946c5.33408-6.967005 6.250448-7.662329 6.250448-12.30241v-5.183947l-.088901-138.12845284h-17.958072l17.287892-8.38519016h33.002915c-7.153139 4.1719419-9.29361 6.71228276-10.209977 14.8427504z"/><path d="m487.929114 66.39776c5.291202 4.384732 16.331038 13.6911021 16.331038 31.3401649 0 17.2016411-9.619746 25.3102981-19.32142 32.9853001-2.976728 3.021817-6.45868 6.29832-6.45868 11.364509 0 5.141907 3.481952 7.929688 5.987592 10.008478l8.322548 6.477289c10.118143 8.611145 19.341903 16.506417 19.341903 32.544761 0 21.847943-20.973641 43.881738-60.606448 43.881738-33.385775 0-49.525647-16.031461-49.525647-33.219336 0-8.363343 4.130551-20.209691 17.757955-28.325231 14.282831-8.803881 33.631561-9.980944 43.995488-10.669285-3.236167-4.212647-6.929767-8.624913-6.929767-15.82496 0-3.93731 1.174305-6.284553 2.307647-9.051683-2.519295.240919-5.059072.488722-7.366718.488722-24.435111 0-38.246854-18.378705-38.246854-36.488956 0-10.6830518 4.833769-22.5362835 14.760746-31.126779 13.135835-10.9033211 28.797791-12.782492 41.244063-12.782492h47.47744l-14.760746 8.39776zm-16.209008 102.854514c-1.906488-.252274-3.049004-.252274-5.347802-.252274-2.106084 0-14.653115.462503-24.371386 3.784116-5.141324 1.913081-20.000918 7.568232-20.000918 24.365503 0 16.762232 16.043406 28.850381 40.862164 28.850381 22.299715 0 34.137836-10.882837 34.137836-25.535776 0-12.060118-7.660365-18.423039-25.279894-31.21195zm6.515108-44.73699c5.302515-5.345602 5.764786-12.729258 5.764786-16.922021 0-16.6543984-9.836846-42.593263-28.905506-42.593263-5.948335 0-12.39293 3.0124766-16.050306 7.6718653-3.881713 4.8240798-5.044188 11.0823456-5.044188 17.1004366 0 15.5084221 8.959891 41.2276981 28.667573 41.2276981 5.75119 0 11.937458-2.820337 15.567641-6.484716z"/><path d="m344.336863 167c-36.70038 0-56.336863-28.951296-56.336863-55.1648 0-30.6286278 24.685864-56.8352 59.798905-56.8352 33.943063 0 55.201095 26.9204778 55.201095 55.185593 0 27.606659-21.011721 56.814407-58.663137 56.814407zm28.701583-18.934605c5.602197-7.506916 6.961554-16.876658 6.961554-26.010072 0-20.657919-9.721459-60.055323-38.453315-60.055323-7.641232 0-15.337387 3.0236187-20.884661 7.9587205-9.048646 8.208951-10.662024 18.5240088-10.662024 28.6444428 0 23.1741257 11.314241 61.3968367 39.39388 61.3968367 9.062377 0 18.310122-4.441592 23.644566-11.934605z"/><path d="m221.332956 167c-36.722516 0-56.332956-28.951296-56.332956-55.1648 0-30.6286278 24.702994-56.8352 59.816975-56.8352 33.936671 0 55.183025 26.9204778 55.183025 55.185593 0 27.606659-20.993096 56.814407-58.667044 56.814407zm28.715813-18.934605c5.563732-7.506916 6.951231-16.876658 6.951231-26.010072 0-20.657919-9.753704-60.055323-38.472181-60.055323-7.672456 0-15.289962 3.0236187-20.853695 7.9587205-9.066823 8.208951-10.674124 18.5240088-10.674124 28.6444428 0 23.1741257 11.367874 61.3968367 39.413208 61.3968367 9.046217 0 18.284761-4.441592 23.635561-11.934605z"/><path d="m149.774985 160.080409-31.086023 7.164469c-12.595198 1.998582-23.9054533 3.755122-35.8822298 3.755122-59.9594677 0-82.8067322-44.418324-82.8067322-79.1825952 0-42.454319 32.3709663-81.8174048 87.8090806-81.8174048 11.7294077 0 23.0121774 1.7357931 33.2917284 4.5573214 16.291989 4.60573 23.912325 10.2833641 28.674176 13.6097247l-18.057928 17.2611142-7.613465 1.7150466 5.428373-8.7066277c-7.352353-7.2267085-20.868314-20.5667282-46.5190921-20.5667282-34.2949465 0-60.1656084 26.2374468-60.1656084 64.5424595 0 41.1403715 29.539967 79.8395685 76.9179786 79.8395685 13.9213709 0 21.0881969-2.814613 27.5953729-5.442507v-35.269103l-32.8244761 1.777286 17.3982781-9.405094h46.065582l-5.634513 5.456338c-1.51857 1.300116-1.724711 1.742708-2.150735 3.485417-.226755 1.991667-.439767 8.326275-.439767 10.553069z"/><path d="m731.702413 148.939774v59.060226h-11.702413v-150.285772h11.702413v17.1168148c7.623365-11.0630557 21.55383-19.8310428 37.732914-19.8310428 29.019517 0 48.564673 22.0642684 48.564673 56.991916 0 34.694018-19.545156 57.218674-48.564673 57.218674-15.274152 0-28.957817-7.895311-37.732914-20.270816zm74.297587-36.047405c0-26.6022013-13.741678-46.892369-38.107867-46.892369-15.131672 0-29.602752 11.9991135-35.892133 22.4636182v48.6144638c6.289381 10.485337 20.760461 22.921918 35.892133 22.921918 24.366189 0 38.107867-20.463766 38.107867-47.107631z"/><path d="m834 16h12v151h-12z"/><path d="m976.463271 197.601096c2.502449 1.1203 6.773752 1.807601 9.481881 1.807601 7.157688 0 12.142017-2.934774 16.618998-13.299268l8.53575-19.388752-46.0999-109.720677h13.053869l39.545541 95.081173 39.16161-95.081173h13.23898l-56.22625 132.74525c-5.83447 13.677283-15.01469 20.25475-27.622917 20.25475-3.784525 0-8.775711-.673555-11.696377-1.573919z"/><path d="m943.4375 166.851012c-.786032-3.79355-1.379004-7.137956-1.81339-9.929567-.358541-2.784701-.565391-5.631592-.565391-8.526852-4.033586 5.935629-9.749555 10.876228-17.051379 14.766517-7.308719 3.91793-14.252002 5.83889-23.774021 5.83889-11.466415 0-20.367883-2.826161-26.718194-8.561401-6.329627-5.728331-9.515125-13.488181-9.515125-23.307189 0-9.805189 4.612767-17.765426 13.810721-23.853073 9.197953-6.115287 21.084964-9.155655 35.798932-9.155655h27.449066v-13.5918298c0-7.8289489-2.661477-13.9856952-7.977536-18.449509-5.336743-4.4707237-12.824733-6.7302703-22.532918-6.7302703-8.873888 0-16.072286 2.0660686-21.553825 6.0876469-5.433275 4.1044976-8.170597 9.1902049-8.170597 15.3193115h-12.045596l-.24822-.5873439c-.434386-8.2642745 3.337188-15.5127895 11.356094-21.7731847 7.984431-6.2534852 18.444173-9.3975027 31.317171-9.3975027 12.831628 0 23.215525 3.095648 31.04137 9.273124 7.81895 6.1152867 11.742215 14.9530852 11.742215 26.5064856v53.9665414c0 3.87647.186166 7.621651.668817 11.270093.496441 3.655353 1.289368 7.303795 2.344306 10.834768zm-41.7882-7.851012c9.989236 0 17.167708-2.250347 24.504629-6.702423 7.288697-4.424294 12.24887-10.196018 14.846071-17.183207v-21.11437h-27.556512c-10.526588 0-19.241335 2.347585-26.096018 7.084427-6.86846 4.722951-10.34747 10.439111-10.34747 17.08597 0 6.271801 2.204521 11.286464 6.586006 15.085661 4.395264 3.840871 10.402584 5.743942 18.063294 5.743942z"/></g><g transform="translate(343 80)"><path d="m.04247104 35.3110072c0-21.5400662 17.20077216-35.39594928 38.58979806-35.39594928 14.335125 0 23.7104758 6.3639648 29.5519875 14.15709788l-10.4706342 5.6461763c-3.9678193-5.1334701-10.9183917-9.1261691-19.0813533-9.1261691-14.5486707 0-25.3568452 10.2541226-25.3568452 24.7188442 0 14.2532303 10.8081745 24.7188441 25.3568452 24.7188441 7.5016584 0 14.1146906-3.178778 17.4212067-6.1524735v-10.5681551h-22.0503292v-10.568155h34.8424132v25.5455828c-7.1641181 7.4919183-17.5314238 12.5164383-30.2132907 12.5164383-21.3890259 0-38.58979806-14.0481479-38.58979806-35.4920816"/><path d="m85.5250965 69.7606178v-68.80308884h51.0810815v10.63267744h-38.0018108v17.734017h37.2197078v10.6262334h-37.2197078v19.1839276h38.0018108v10.6262334z"/><path d="m171.344753 69.7606178v-58.1704114h-22.228923v-10.63267744h57.335907v10.63267744h-22.228922v58.1704114z"/><path d="m252.320463.95752896h12.509653v68.80308884h-12.509653z"/><path d="m300.618038 69.7606178v-58.1704114h-22.235799v-10.63267744h57.335908v10.63267744h-22.222048v58.1704114z"/><path d="m378.459459 35.3622824c0-20.4481002 15.73313-35.44722448 38.053679-35.44722448 22.195075 0 38.046708 14.99912428 38.046708 35.44722448 0 20.4416821-15.851633 35.4408064-38.046708 35.4408064-22.320549 0-38.053679-14.9991243-38.053679-35.4408064zm62.548263-.5244446c0-14.0306548-9.639947-24.4980695-24.494607-24.4980695-14.965464 0-24.501532 10.4674147-24.501532 24.4980695 0 13.9226779 9.536068 24.4980695 24.501532 24.4980695 14.85466 0 24.494607-10.5753916 24.494607-24.4980695z"/><path d="m520.311577 69.7606178-38.290529-49.2002982v49.2002982h-12.866608v-68.80308884h13.203394l37.513859 47.66017094v-47.66017094h12.873481v68.80308884z"/></g></g></g></svg>