<?xml version="1.0" encoding="utf-8"?>
<!-- Generator: Adobe Illustrator 19.0.0, SVG Export Plug-In . SVG Version: 6.00 Build 0)  -->
<svg version="1.1" id="Layer_1" xmlns="http://www.w3.org/2000/svg" xmlns:xlink="http://www.w3.org/1999/xlink" x="0px" y="0px"
	 viewBox="174.9 -112.7 67 23.2" enable-background="new 174.9 -112.7 67 23.2" xml:space="preserve">
<g>
	<g>
		<rect x="150" y="137.8" fill="#FFFFFF" width="18" height="18"/>
		<rect x="150" y="112.8" fill="#FFFFFF" width="18" height="18"/>
		<rect x="125" y="137.8" fill="#FFFFFF" width="18" height="18"/>
		<rect x="175" y="137.8" fill="#FFFFFF" width="18" height="18"/>
		<rect x="150" y="162.8" fill="#FFFFFF" width="18" height="18"/>
		<rect x="125" y="162.8" fill="#FFFFFF" width="18" height="18"/>
		<rect x="175" y="162.8" fill="#FFFFFF" width="18" height="18"/>
		<rect x="175" y="112.8" fill="#FFFFFF" width="18" height="18"/>
		<rect x="117" y="103.8" fill="#FFFFFF" width="18" height="18"/>
	</g>
	<g>
		<path fill="#FFFFFF" d="M210.2,165.5v-39.7c0-1.5,0.5-2.8,1.6-3.9s2.4-1.6,3.9-1.6h15c6,0,10.7,1.6,14.1,4.8
			c3.5,3.2,5.2,7.4,5.2,12.6v0.1c0,5.6-1.9,10-5.8,13.1c-3.8,3.1-8.7,4.6-14.6,4.6h-8.4v10c0,1.5-0.5,2.8-1.6,3.9
			c-1.1,1.1-2.4,1.6-3.9,1.6s-2.8-0.5-3.9-1.6C210.7,168.4,210.2,167.1,210.2,165.5z M221.3,145.6h8.8c2.7,0,4.8-0.7,6.4-2.2
			c1.6-1.4,2.4-3.3,2.4-5.5v-0.1c0-2.4-0.8-4.3-2.4-5.7c-1.6-1.3-3.8-2-6.6-2h-8.6V145.6z"/>
		<path fill="#FFFFFF" d="M257,123v-0.1c0-1.5,0.6-2.8,1.7-3.7c1.2-0.9,2.6-1.4,4.4-1.4c1.8,0,3.2,0.5,4.4,1.4
			c1.2,0.9,1.7,2.2,1.7,3.7v0.1c0,1.5-0.6,2.8-1.7,3.7c-1.2,1-2.6,1.4-4.4,1.4c-1.8,0-3.2-0.5-4.4-1.4
			C257.6,125.7,257,124.5,257,123z M257.7,165.6v-28.5c0-1.5,0.5-2.8,1.6-3.9c1.1-1.1,2.4-1.6,3.9-1.6c1.5,0,2.8,0.5,3.9,1.6
			c1.1,1.1,1.6,2.4,1.6,3.9v28.5c0,1.5-0.5,2.8-1.6,3.9c-1.1,1.1-2.4,1.6-3.9,1.6c-1.5,0-2.8-0.5-3.9-1.6
			C258.2,168.4,257.7,167.1,257.7,165.6z"/>
		<path fill="#FFFFFF" d="M278.4,169.8c-1-0.9-1.5-2-1.5-3.4s0.5-2.6,1.5-3.7l9.9-11.7l-9-10.4c-1.2-1.4-1.8-2.8-1.8-4.2
			c0-1.5,0.5-2.7,1.5-3.6c1-0.9,2.2-1.4,3.6-1.4c1.9,0,3.6,0.9,5.1,2.8l7.1,9.5l7.3-9.5c1.5-1.9,3.1-2.8,4.8-2.8
			c1.4,0,2.7,0.5,3.6,1.4c1,0.9,1.5,2,1.5,3.4c0,1.2-0.5,2.5-1.5,3.7l-9.4,10.9l9.6,11.1c1.2,1.4,1.8,2.8,1.8,4.2
			c0,1.5-0.5,2.7-1.5,3.6c-1,0.9-2.2,1.4-3.6,1.4c-1.9,0-3.6-0.9-5.1-2.8l-7.8-10.2l-7.8,10.2c-1.5,1.9-3.1,2.8-4.8,2.8
			C280.6,171.2,279.3,170.7,278.4,169.8z"/>
		<path fill="#FFFFFF" d="M350.8,166.8c-3.6,3.1-8.1,4.7-13.4,4.7c-5.9,0-10.7-1.9-14.5-5.6c-3.8-3.7-5.7-8.5-5.7-14.4v-0.1
			c0-5.6,1.8-10.4,5.4-14.3c3.6-3.9,8.2-5.8,13.7-5.8c3.1,0,5.8,0.6,8.3,1.8c2.5,1.2,4.4,2.7,5.9,4.6c1.4,1.9,2.5,3.9,3.3,5.9
			c0.7,2.1,1.1,4.2,1.1,6.3c0,1.5-0.5,2.8-1.5,3.8c-1,1-2.2,1.5-3.6,1.5h-21.7c0.5,2.4,1.6,4.3,3.2,5.6s3.7,1.9,6.2,1.9
			c2.8,0,5.4-0.9,7.8-2.6c0.8-0.6,1.7-0.9,2.7-0.9c1.2,0,2.2,0.4,3,1.2c0.8,0.8,1.2,1.8,1.2,3.1
			C352.3,164.9,351.8,165.9,350.8,166.8z M328,148.3h16.5c-0.3-2.5-1.2-4.5-2.6-6c-1.4-1.5-3.3-2.2-5.5-2.2c-2.2,0-4,0.7-5.5,2.2
			C329.4,143.8,328.4,145.8,328,148.3z"/>
		<path fill="#FFFFFF" d="M363.8,165.6v-42.5c0-1.5,0.5-2.8,1.6-3.9c1.1-1.1,2.4-1.6,3.9-1.6c1.5,0,2.8,0.5,3.9,1.6
			c1.1,1.1,1.6,2.4,1.6,3.9v42.5c0,1.5-0.5,2.8-1.6,3.9c-1.1,1.1-2.4,1.6-3.9,1.6c-1.5,0-2.8-0.5-3.9-1.6
			C364.3,168.4,363.8,167.1,363.8,165.6z"/>
		<path fill="rgba(255,255,255,0.8)" d="M386.2,165.5v-39.7c0-1.5,0.5-2.8,1.6-3.9s2.4-1.6,3.9-1.6h15c6,0,10.7,1.6,14.1,4.8
			c3.5,3.2,5.2,7.4,5.2,12.6v0.1c0,5.6-1.9,10-5.8,13.1c-3.8,3.1-8.7,4.6-14.6,4.6h-8.4v10c0,1.5-0.5,2.8-1.6,3.9
			c-1.1,1.1-2.4,1.6-3.9,1.6s-2.8-0.5-3.9-1.6C386.7,168.4,386.2,167.1,386.2,165.5z M397.3,145.6h8.8c2.7,0,4.8-0.7,6.4-2.2
			c1.6-1.4,2.4-3.3,2.4-5.5v-0.1c0-2.4-0.8-4.3-2.4-5.7c-1.6-1.3-3.8-2-6.6-2h-8.6V145.6z"/>
		<path fill="rgba(255,255,255,0.8)" d="M443.3,171.3c-3.8,0-6.9-1-9.5-3.1c-2.5-2.1-3.8-5-3.8-8.7v-0.1c0-4.1,1.4-7.2,4.2-9.2
			c2.8-2.1,6.6-3.1,11.3-3.1c3.2,0,6.4,0.5,9.4,1.6V148c0-4.7-2.8-7.1-8.3-7.1c-2.7,0-5.3,0.4-7.6,1.1c-0.6,0.2-1.1,0.3-1.6,0.3
			c-1.2,0-2.3-0.4-3.2-1.3c-0.9-0.9-1.3-1.9-1.3-3.2c0-1,0.3-1.8,0.8-2.6c0.6-0.8,1.3-1.3,2.1-1.7c3.6-1.3,7.7-2,12.3-2
			c5.8,0,10.2,1.4,13,4.3c2.8,2.8,4.2,6.9,4.2,12.3v17.6c0,1.5-0.5,2.7-1.5,3.7c-1,1-2.3,1.5-3.8,1.5c-1.5,0-2.8-0.5-3.8-1.4
			c-1-0.9-1.5-2-1.5-3.2v-0.1C452.1,169.7,448.2,171.3,443.3,171.3z M446.7,163.8c2.5,0,4.6-0.6,6.2-1.9c1.6-1.3,2.4-2.9,2.4-4.9
			v-1.9c-2.1-1-4.4-1.4-7-1.4c-2.4,0-4.2,0.5-5.5,1.4c-1.3,0.9-2,2.2-2,4v0.1c0,1.4,0.6,2.6,1.7,3.4
			C443.4,163.4,444.9,163.8,446.7,163.8z"/>
		<path fill="rgba(255,255,255,0.8)" d="M482.3,182.4c-2.1,0-4.1-0.3-6-1c-2.3-0.8-3.5-2.3-3.5-4.5c0-1.3,0.4-2.4,1.3-3.2c0.9-0.8,1.9-1.3,3-1.3
			c0.6,0,1.2,0.1,1.8,0.3c0.9,0.3,1.7,0.4,2.3,0.4c1,0,1.8-0.2,2.3-0.5c0.6-0.3,1.1-0.9,1.5-1.8l0.4-0.9l-13.2-30.5
			c-0.4-1-0.6-1.8-0.6-2.5c0-1.5,0.5-2.8,1.5-3.8c1-1,2.3-1.5,3.9-1.5c2.5,0,4.2,1.4,5.3,4.1l8.4,22.5l8.1-22.4
			c1.1-2.8,2.8-4.2,5.3-4.2c1.4,0,2.7,0.5,3.7,1.4c1,1,1.5,2.2,1.5,3.6c0,1-0.2,1.8-0.5,2.6l-13.5,32.3c-1.6,4-3.4,6.8-5.3,8.4
			C488.1,181.6,485.5,182.4,482.3,182.4z"/>
	</g>
</g>
<g>
	<g>
		<path fill="#FFFFFF" d="M101.6-99.1v-8.6c0-0.3,0.1-0.6,0.4-0.8c0.2-0.2,0.5-0.4,0.8-0.4h3.3c1.3,0,2.3,0.3,3.1,1
			c0.7,0.7,1.1,1.6,1.1,2.7v0c0,1.2-0.4,2.2-1.2,2.8c-0.8,0.7-1.9,1-3.2,1H104v2.2c0,0.3-0.1,0.6-0.4,0.8c-0.2,0.2-0.5,0.4-0.8,0.4
			c-0.3,0-0.6-0.1-0.8-0.4C101.8-98.5,101.6-98.8,101.6-99.1z M104-103.4h1.9c0.6,0,1-0.2,1.4-0.5c0.3-0.3,0.5-0.7,0.5-1.2v0
			c0-0.5-0.2-0.9-0.5-1.2c-0.3-0.3-0.8-0.4-1.4-0.4H104V-103.4z"/>
		<path fill="#FFFFFF" d="M111.8-108.3L111.8-108.3c0-0.4,0.1-0.6,0.4-0.8c0.2-0.2,0.6-0.3,0.9-0.3c0.4,0,0.7,0.1,0.9,0.3
			c0.2,0.2,0.4,0.5,0.4,0.8v0c0,0.3-0.1,0.6-0.4,0.8c-0.2,0.2-0.6,0.3-0.9,0.3c-0.4,0-0.7-0.1-0.9-0.3
			C111.9-107.7,111.8-108,111.8-108.3z M111.9-99.1v-6.2c0-0.3,0.1-0.6,0.4-0.8c0.2-0.2,0.5-0.3,0.8-0.3c0.3,0,0.6,0.1,0.8,0.3
			c0.2,0.2,0.4,0.5,0.4,0.8v6.2c0,0.3-0.1,0.6-0.4,0.8c-0.2,0.2-0.5,0.3-0.8,0.3c-0.3,0-0.6-0.1-0.8-0.3
			C112-98.5,111.9-98.8,111.9-99.1z"/>
		<path fill="#FFFFFF" d="M116.4-98.2c-0.2-0.2-0.3-0.4-0.3-0.7c0-0.3,0.1-0.6,0.3-0.8l2.1-2.5l-1.9-2.2c-0.3-0.3-0.4-0.6-0.4-0.9
			c0-0.3,0.1-0.6,0.3-0.8c0.2-0.2,0.5-0.3,0.8-0.3c0.4,0,0.8,0.2,1.1,0.6l1.5,2.1l1.6-2.1c0.3-0.4,0.7-0.6,1-0.6
			c0.3,0,0.6,0.1,0.8,0.3c0.2,0.2,0.3,0.4,0.3,0.7c0,0.3-0.1,0.5-0.3,0.8l-2,2.4l2.1,2.4c0.3,0.3,0.4,0.6,0.4,0.9
			c0,0.3-0.1,0.6-0.3,0.8c-0.2,0.2-0.5,0.3-0.8,0.3c-0.4,0-0.8-0.2-1.1-0.6l-1.7-2.2l-1.7,2.2c-0.3,0.4-0.7,0.6-1,0.6
			C116.9-97.9,116.6-98,116.4-98.2z"/>
		<path fill="#FFFFFF" d="M132.1-98.9c-0.8,0.7-1.8,1-2.9,1c-1.3,0-2.3-0.4-3.1-1.2c-0.8-0.8-1.2-1.8-1.2-3.1v0
			c0-1.2,0.4-2.2,1.2-3.1c0.8-0.8,1.8-1.3,3-1.3c0.7,0,1.3,0.1,1.8,0.4c0.5,0.3,1,0.6,1.3,1c0.3,0.4,0.5,0.8,0.7,1.3
			c0.2,0.5,0.2,0.9,0.2,1.4c0,0.3-0.1,0.6-0.3,0.8c-0.2,0.2-0.5,0.3-0.8,0.3h-4.7c0.1,0.5,0.3,0.9,0.7,1.2c0.4,0.3,0.8,0.4,1.3,0.4
			c0.6,0,1.2-0.2,1.7-0.6c0.2-0.1,0.4-0.2,0.6-0.2c0.3,0,0.5,0.1,0.7,0.3c0.2,0.2,0.3,0.4,0.3,0.7C132.4-99.3,132.3-99.1,132.1-98.9
			z M127.1-102.9h3.6c-0.1-0.5-0.3-1-0.6-1.3c-0.3-0.3-0.7-0.5-1.2-0.5c-0.5,0-0.9,0.2-1.2,0.5C127.4-103.8,127.2-103.4,127.1-102.9
			z"/>
		<path fill="#FFFFFF" d="M134.9-99.1v-9.2c0-0.3,0.1-0.6,0.4-0.8c0.2-0.2,0.5-0.3,0.8-0.3c0.3,0,0.6,0.1,0.8,0.3
			c0.2,0.2,0.4,0.5,0.4,0.8v9.2c0,0.3-0.1,0.6-0.4,0.8c-0.2,0.2-0.5,0.3-0.8,0.3c-0.3,0-0.6-0.1-0.8-0.3
			C135-98.5,134.9-98.8,134.9-99.1z"/>
		<path fill="rgba(255,255,255,0.8)" d="M139.7-99.1v-8.6c0-0.3,0.1-0.6,0.4-0.8c0.2-0.2,0.5-0.4,0.8-0.4h3.3c1.3,0,2.3,0.3,3.1,1
			c0.7,0.7,1.1,1.6,1.1,2.7v0c0,1.2-0.4,2.2-1.2,2.8c-0.8,0.7-1.9,1-3.2,1h-1.8v2.2c0,0.3-0.1,0.6-0.4,0.8c-0.2,0.2-0.5,0.4-0.8,0.4
			s-0.6-0.1-0.8-0.4C139.8-98.5,139.7-98.8,139.7-99.1z M142.1-103.4h1.9c0.6,0,1-0.2,1.4-0.5c0.3-0.3,0.5-0.7,0.5-1.2v0
			c0-0.5-0.2-0.9-0.5-1.2c-0.3-0.3-0.8-0.4-1.4-0.4h-1.9V-103.4z"/>
		<path fill="rgba(255,255,255,0.8)" d="M152.1-97.9c-0.8,0-1.5-0.2-2-0.7c-0.5-0.5-0.8-1.1-0.8-1.9v0c0-0.9,0.3-1.5,0.9-2
			c0.6-0.4,1.4-0.7,2.5-0.7c0.7,0,1.4,0.1,2,0.3v-0.1c0-1-0.6-1.5-1.8-1.5c-0.6,0-1.1,0.1-1.6,0.2c-0.1,0-0.2,0.1-0.3,0.1
			c-0.3,0-0.5-0.1-0.7-0.3c-0.2-0.2-0.3-0.4-0.3-0.7c0-0.2,0.1-0.4,0.2-0.6c0.1-0.2,0.3-0.3,0.5-0.4c0.8-0.3,1.7-0.4,2.7-0.4
			c1.3,0,2.2,0.3,2.8,0.9c0.6,0.6,0.9,1.5,0.9,2.7v3.8c0,0.3-0.1,0.6-0.3,0.8c-0.2,0.2-0.5,0.3-0.8,0.3c-0.3,0-0.6-0.1-0.8-0.3
			c-0.2-0.2-0.3-0.4-0.3-0.7v0C154-98.2,153.1-97.9,152.1-97.9z M152.8-99.5c0.6,0,1-0.1,1.3-0.4c0.3-0.3,0.5-0.6,0.5-1.1v-0.4
			c-0.4-0.2-0.9-0.3-1.5-0.3c-0.5,0-0.9,0.1-1.2,0.3c-0.3,0.2-0.4,0.5-0.4,0.9v0c0,0.3,0.1,0.6,0.4,0.7
			C152.1-99.6,152.4-99.5,152.8-99.5z"/>
		<path fill="rgba(255,255,255,0.8)" d="M160.5-95.5c-0.5,0-0.9-0.1-1.3-0.2c-0.5-0.2-0.7-0.5-0.7-1c0-0.3,0.1-0.5,0.3-0.7
			c0.2-0.2,0.4-0.3,0.7-0.3c0.1,0,0.3,0,0.4,0.1c0.2,0.1,0.4,0.1,0.5,0.1c0.2,0,0.4,0,0.5-0.1c0.1-0.1,0.2-0.2,0.3-0.4l0.1-0.2
			l-2.8-6.6c-0.1-0.2-0.1-0.4-0.1-0.5c0-0.3,0.1-0.6,0.3-0.8c0.2-0.2,0.5-0.3,0.8-0.3c0.5,0,0.9,0.3,1.1,0.9l1.8,4.9l1.7-4.8
			c0.2-0.6,0.6-0.9,1.1-0.9c0.3,0,0.6,0.1,0.8,0.3c0.2,0.2,0.3,0.5,0.3,0.8c0,0.2,0,0.4-0.1,0.6l-2.9,7c-0.4,0.9-0.7,1.5-1.2,1.8
			C161.7-95.7,161.2-95.5,160.5-95.5z"/>
	</g>
</g>
<g>
	<g>
		<path fill="#FFFFFF" d="M176-94.1v-8.6c0-0.3,0.1-0.6,0.4-0.8c0.2-0.2,0.5-0.4,0.8-0.4h3.3c1.3,0,2.3,0.3,3.1,1
			c0.7,0.7,1.1,1.6,1.1,2.7v0c0,1.2-0.4,2.2-1.2,2.8c-0.8,0.7-1.9,1-3.2,1h-1.8v2.2c0,0.3-0.1,0.6-0.4,0.8c-0.2,0.2-0.5,0.4-0.8,0.4
			s-0.6-0.1-0.8-0.4C176.2-93.5,176-93.8,176-94.1z M178.4-98.4h1.9c0.6,0,1-0.2,1.4-0.5c0.3-0.3,0.5-0.7,0.5-1.2v0
			c0-0.5-0.2-0.9-0.5-1.2c-0.3-0.3-0.8-0.4-1.4-0.4h-1.9V-98.4z"/>
		<path fill="#FFFFFF" d="M186.2-103.3L186.2-103.3c0-0.4,0.1-0.6,0.4-0.8c0.2-0.2,0.6-0.3,0.9-0.3c0.4,0,0.7,0.1,0.9,0.3
			c0.2,0.2,0.4,0.5,0.4,0.8v0c0,0.3-0.1,0.6-0.4,0.8c-0.2,0.2-0.6,0.3-0.9,0.3c-0.4,0-0.7-0.1-0.9-0.3
			C186.3-102.7,186.2-103,186.2-103.3z M186.3-94.1v-6.2c0-0.3,0.1-0.6,0.4-0.8c0.2-0.2,0.5-0.3,0.8-0.3c0.3,0,0.6,0.1,0.8,0.3
			c0.2,0.2,0.4,0.5,0.4,0.8v6.2c0,0.3-0.1,0.6-0.4,0.8c-0.2,0.2-0.5,0.3-0.8,0.3c-0.3,0-0.6-0.1-0.8-0.3
			C186.4-93.5,186.3-93.8,186.3-94.1z"/>
		<path fill="#FFFFFF" d="M190.8-93.2c-0.2-0.2-0.3-0.4-0.3-0.7c0-0.3,0.1-0.6,0.3-0.8l2.1-2.5l-1.9-2.2c-0.3-0.3-0.4-0.6-0.4-0.9
			c0-0.3,0.1-0.6,0.3-0.8c0.2-0.2,0.5-0.3,0.8-0.3c0.4,0,0.8,0.2,1.1,0.6l1.5,2.1l1.6-2.1c0.3-0.4,0.7-0.6,1-0.6
			c0.3,0,0.6,0.1,0.8,0.3c0.2,0.2,0.3,0.4,0.3,0.7c0,0.3-0.1,0.5-0.3,0.8l-2,2.4l2.1,2.4c0.3,0.3,0.4,0.6,0.4,0.9
			c0,0.3-0.1,0.6-0.3,0.8c-0.2,0.2-0.5,0.3-0.8,0.3c-0.4,0-0.8-0.2-1.1-0.6l-1.7-2.2l-1.7,2.2c-0.3,0.4-0.7,0.6-1,0.6
			C191.3-92.9,191-93,190.8-93.2z"/>
		<path fill="#FFFFFF" d="M206.5-93.9c-0.8,0.7-1.8,1-2.9,1c-1.3,0-2.3-0.4-3.1-1.2c-0.8-0.8-1.2-1.8-1.2-3.1v0
			c0-1.2,0.4-2.2,1.2-3.1c0.8-0.8,1.8-1.3,3-1.3c0.7,0,1.3,0.1,1.8,0.4c0.5,0.3,1,0.6,1.3,1c0.3,0.4,0.5,0.8,0.7,1.3
			c0.2,0.5,0.2,0.9,0.2,1.4c0,0.3-0.1,0.6-0.3,0.8c-0.2,0.2-0.5,0.3-0.8,0.3h-4.7c0.1,0.5,0.3,0.9,0.7,1.2s0.8,0.4,1.3,0.4
			c0.6,0,1.2-0.2,1.7-0.6c0.2-0.1,0.4-0.2,0.6-0.2c0.3,0,0.5,0.1,0.7,0.3c0.2,0.2,0.3,0.4,0.3,0.7C206.8-94.3,206.7-94.1,206.5-93.9
			z M201.5-97.9h3.6c-0.1-0.5-0.3-1-0.6-1.3c-0.3-0.3-0.7-0.5-1.2-0.5c-0.5,0-0.9,0.2-1.2,0.5C201.8-98.8,201.6-98.4,201.5-97.9z"/>
		<path fill="#FFFFFF" d="M209.3-94.1v-9.2c0-0.3,0.1-0.6,0.4-0.8c0.2-0.2,0.5-0.3,0.8-0.3c0.3,0,0.6,0.1,0.8,0.3
			c0.2,0.2,0.4,0.5,0.4,0.8v9.2c0,0.3-0.1,0.6-0.4,0.8c-0.2,0.2-0.5,0.3-0.8,0.3c-0.3,0-0.6-0.1-0.8-0.3
			C209.4-93.5,209.3-93.8,209.3-94.1z"/>
		<path fill="rgba(255,255,255,0.8)" d="M214.1-94.1v-8.6c0-0.3,0.1-0.6,0.4-0.8c0.2-0.2,0.5-0.4,0.8-0.4h3.3c1.3,0,2.3,0.3,3.1,1
			c0.7,0.7,1.1,1.6,1.1,2.7v0c0,1.2-0.4,2.2-1.2,2.8c-0.8,0.7-1.9,1-3.2,1h-1.8v2.2c0,0.3-0.1,0.6-0.4,0.8c-0.2,0.2-0.5,0.4-0.8,0.4
			s-0.6-0.1-0.8-0.4C214.2-93.5,214.1-93.8,214.1-94.1z M216.5-98.4h1.9c0.6,0,1-0.2,1.4-0.5c0.3-0.3,0.5-0.7,0.5-1.2v0
			c0-0.5-0.2-0.9-0.5-1.2c-0.3-0.3-0.8-0.4-1.4-0.4h-1.9V-98.4z"/>
		<path fill="rgba(255,255,255,0.8)" d="M226.5-92.9c-0.8,0-1.5-0.2-2-0.7c-0.5-0.5-0.8-1.1-0.8-1.9v0c0-0.9,0.3-1.5,0.9-2
			c0.6-0.4,1.4-0.7,2.5-0.7c0.7,0,1.4,0.1,2,0.3v-0.1c0-1-0.6-1.5-1.8-1.5c-0.6,0-1.1,0.1-1.6,0.2c-0.1,0-0.2,0.1-0.3,0.1
			c-0.3,0-0.5-0.1-0.7-0.3c-0.2-0.2-0.3-0.4-0.3-0.7c0-0.2,0.1-0.4,0.2-0.6c0.1-0.2,0.3-0.3,0.5-0.4c0.8-0.3,1.7-0.4,2.7-0.4
			c1.3,0,2.2,0.3,2.8,0.9c0.6,0.6,0.9,1.5,0.9,2.7v3.8c0,0.3-0.1,0.6-0.3,0.8c-0.2,0.2-0.5,0.3-0.8,0.3c-0.3,0-0.6-0.1-0.8-0.3
			c-0.2-0.2-0.3-0.4-0.3-0.7v0C228.4-93.2,227.5-92.9,226.5-92.9z M227.2-94.5c0.6,0,1-0.1,1.3-0.4c0.3-0.3,0.5-0.6,0.5-1.1v-0.4
			c-0.4-0.2-0.9-0.3-1.5-0.3c-0.5,0-0.9,0.1-1.2,0.3c-0.3,0.2-0.4,0.5-0.4,0.9v0c0,0.3,0.1,0.6,0.4,0.7
			C226.5-94.6,226.8-94.5,227.2-94.5z"/>
		<path fill="rgba(255,255,255,0.8)" d="M234.9-90.5c-0.5,0-0.9-0.1-1.3-0.2c-0.5-0.2-0.7-0.5-0.7-1c0-0.3,0.1-0.5,0.3-0.7
			c0.2-0.2,0.4-0.3,0.7-0.3c0.1,0,0.3,0,0.4,0.1c0.2,0.1,0.4,0.1,0.5,0.1c0.2,0,0.4,0,0.5-0.1c0.1-0.1,0.2-0.2,0.3-0.4l0.1-0.2
			l-2.8-6.6c-0.1-0.2-0.1-0.4-0.1-0.5c0-0.3,0.1-0.6,0.3-0.8c0.2-0.2,0.5-0.3,0.8-0.3c0.5,0,0.9,0.3,1.1,0.9l1.8,4.9l1.7-4.8
			c0.2-0.6,0.6-0.9,1.1-0.9c0.3,0,0.6,0.1,0.8,0.3c0.2,0.2,0.3,0.5,0.3,0.8c0,0.2,0,0.4-0.1,0.6l-2.9,7c-0.4,0.9-0.7,1.5-1.2,1.8
			C236.1-90.7,235.6-90.5,234.9-90.5z"/>
	</g>
</g>
<g>
	<g>
		<path fill="#FFFFFF" d="M288.9-99.1v-8.6c0-0.3,0.1-0.6,0.4-0.8c0.2-0.2,0.5-0.4,0.8-0.4h3.3c1.3,0,2.3,0.3,3.1,1
			c0.7,0.7,1.1,1.6,1.1,2.7v0c0,1.2-0.4,2.2-1.2,2.8c-0.8,0.7-1.9,1-3.2,1h-1.8v2.2c0,0.3-0.1,0.6-0.4,0.8c-0.2,0.2-0.5,0.4-0.8,0.4
			s-0.6-0.1-0.8-0.4C289-98.5,288.9-98.8,288.9-99.1z M291.3-103.4h1.9c0.6,0,1-0.2,1.4-0.5c0.3-0.3,0.5-0.7,0.5-1.2v0
			c0-0.5-0.2-0.9-0.5-1.2c-0.3-0.3-0.8-0.4-1.4-0.4h-1.9V-103.4z"/>
		<path fill="#FFFFFF" d="M299-108.3L299-108.3c0-0.4,0.1-0.6,0.4-0.8c0.2-0.2,0.6-0.3,0.9-0.3c0.4,0,0.7,0.1,0.9,0.3
			c0.2,0.2,0.4,0.5,0.4,0.8v0c0,0.3-0.1,0.6-0.4,0.8c-0.2,0.2-0.6,0.3-0.9,0.3c-0.4,0-0.7-0.1-0.9-0.3
			C299.2-107.7,299-108,299-108.3z M299.2-99.1v-6.2c0-0.3,0.1-0.6,0.4-0.8c0.2-0.2,0.5-0.3,0.8-0.3c0.3,0,0.6,0.1,0.8,0.3
			c0.2,0.2,0.4,0.5,0.4,0.8v6.2c0,0.3-0.1,0.6-0.4,0.8c-0.2,0.2-0.5,0.3-0.8,0.3c-0.3,0-0.6-0.1-0.8-0.3
			C299.3-98.5,299.2-98.8,299.2-99.1z"/>
		<path fill="#FFFFFF" d="M303.6-98.2c-0.2-0.2-0.3-0.4-0.3-0.7c0-0.3,0.1-0.6,0.3-0.8l2.1-2.5l-1.9-2.2c-0.3-0.3-0.4-0.6-0.4-0.9
			c0-0.3,0.1-0.6,0.3-0.8c0.2-0.2,0.5-0.3,0.8-0.3c0.4,0,0.8,0.2,1.1,0.6l1.5,2.1l1.6-2.1c0.3-0.4,0.7-0.6,1-0.6
			c0.3,0,0.6,0.1,0.8,0.3c0.2,0.2,0.3,0.4,0.3,0.7c0,0.3-0.1,0.5-0.3,0.8l-2,2.4l2.1,2.4c0.3,0.3,0.4,0.6,0.4,0.9
			c0,0.3-0.1,0.6-0.3,0.8c-0.2,0.2-0.5,0.3-0.8,0.3c-0.4,0-0.8-0.2-1.1-0.6l-1.7-2.2l-1.7,2.2c-0.3,0.4-0.7,0.6-1,0.6
			C304.1-97.9,303.9-98,303.6-98.2z"/>
		<path fill="#FFFFFF" d="M319.3-98.9c-0.8,0.7-1.8,1-2.9,1c-1.3,0-2.3-0.4-3.1-1.2c-0.8-0.8-1.2-1.8-1.2-3.1v0
			c0-1.2,0.4-2.2,1.2-3.1c0.8-0.8,1.8-1.3,3-1.3c0.7,0,1.3,0.1,1.8,0.4c0.5,0.3,1,0.6,1.3,1c0.3,0.4,0.5,0.8,0.7,1.3
			c0.2,0.5,0.2,0.9,0.2,1.4c0,0.3-0.1,0.6-0.3,0.8c-0.2,0.2-0.5,0.3-0.8,0.3h-4.7c0.1,0.5,0.3,0.9,0.7,1.2s0.8,0.4,1.3,0.4
			c0.6,0,1.2-0.2,1.7-0.6c0.2-0.1,0.4-0.2,0.6-0.2c0.3,0,0.5,0.1,0.7,0.3c0.2,0.2,0.3,0.4,0.3,0.7C319.6-99.3,319.5-99.1,319.3-98.9
			z M314.4-102.9h3.6c-0.1-0.5-0.3-1-0.6-1.3c-0.3-0.3-0.7-0.5-1.2-0.5c-0.5,0-0.9,0.2-1.2,0.5C314.7-103.8,314.5-103.4,314.4-102.9
			z"/>
		<path fill="#FFFFFF" d="M322.1-99.1v-9.2c0-0.3,0.1-0.6,0.4-0.8c0.2-0.2,0.5-0.3,0.8-0.3c0.3,0,0.6,0.1,0.8,0.3
			c0.2,0.2,0.4,0.5,0.4,0.8v9.2c0,0.3-0.1,0.6-0.4,0.8c-0.2,0.2-0.5,0.3-0.8,0.3c-0.3,0-0.6-0.1-0.8-0.3
			C322.2-98.5,322.1-98.8,322.1-99.1z"/>
		<path fill="rgba(255,255,255,0.8)" d="M327-99.1v-8.6c0-0.3,0.1-0.6,0.4-0.8c0.2-0.2,0.5-0.4,0.8-0.4h3.3c1.3,0,2.3,0.3,3.1,1
			c0.7,0.7,1.1,1.6,1.1,2.7v0c0,1.2-0.4,2.2-1.2,2.8c-0.8,0.7-1.9,1-3.2,1h-1.8v2.2c0,0.3-0.1,0.6-0.4,0.8c-0.2,0.2-0.5,0.4-0.8,0.4
			c-0.3,0-0.6-0.1-0.8-0.4C327.1-98.5,327-98.8,327-99.1z M329.4-103.4h1.9c0.6,0,1-0.2,1.4-0.5c0.3-0.3,0.5-0.7,0.5-1.2v0
			c0-0.5-0.2-0.9-0.5-1.2c-0.3-0.3-0.8-0.4-1.4-0.4h-1.9V-103.4z"/>
		<path fill="rgba(255,255,255,0.8)" d="M339.3-97.9c-0.8,0-1.5-0.2-2-0.7c-0.5-0.5-0.8-1.1-0.8-1.9v0c0-0.9,0.3-1.5,0.9-2
			c0.6-0.4,1.4-0.7,2.5-0.7c0.7,0,1.4,0.1,2,0.3v-0.1c0-1-0.6-1.5-1.8-1.5c-0.6,0-1.1,0.1-1.6,0.2c-0.1,0-0.2,0.1-0.3,0.1
			c-0.3,0-0.5-0.1-0.7-0.3c-0.2-0.2-0.3-0.4-0.3-0.7c0-0.2,0.1-0.4,0.2-0.6c0.1-0.2,0.3-0.3,0.5-0.4c0.8-0.3,1.7-0.4,2.7-0.4
			c1.3,0,2.2,0.3,2.8,0.9c0.6,0.6,0.9,1.5,0.9,2.7v3.8c0,0.3-0.1,0.6-0.3,0.8c-0.2,0.2-0.5,0.3-0.8,0.3c-0.3,0-0.6-0.1-0.8-0.3
			c-0.2-0.2-0.3-0.4-0.3-0.7v0C341.2-98.2,340.4-97.9,339.3-97.9z M340-99.5c0.5,0,1-0.1,1.3-0.4c0.3-0.3,0.5-0.6,0.5-1.1v-0.4
			c-0.4-0.2-0.9-0.3-1.5-0.3c-0.5,0-0.9,0.1-1.2,0.3c-0.3,0.2-0.4,0.5-0.4,0.9v0c0,0.3,0.1,0.6,0.4,0.7
			C339.4-99.6,339.7-99.5,340-99.5z"/>
		<path fill="rgba(255,255,255,0.8)" d="M347.8-95.5c-0.5,0-0.9-0.1-1.3-0.2c-0.5-0.2-0.7-0.5-0.7-1c0-0.3,0.1-0.5,0.3-0.7
			c0.2-0.2,0.4-0.3,0.7-0.3c0.1,0,0.3,0,0.4,0.1c0.2,0.1,0.4,0.1,0.5,0.1c0.2,0,0.4,0,0.5-0.1c0.1-0.1,0.2-0.2,0.3-0.4l0.1-0.2
			l-2.8-6.6c-0.1-0.2-0.1-0.4-0.1-0.5c0-0.3,0.1-0.6,0.3-0.8c0.2-0.2,0.5-0.3,0.8-0.3c0.5,0,0.9,0.3,1.1,0.9l1.8,4.9l1.7-4.8
			c0.2-0.6,0.6-0.9,1.1-0.9c0.3,0,0.6,0.1,0.8,0.3c0.2,0.2,0.3,0.5,0.3,0.8c0,0.2,0,0.4-0.1,0.6l-2.9,7c-0.4,0.9-0.7,1.5-1.2,1.8
			C349-95.7,348.4-95.5,347.8-95.5z"/>
	</g>
</g>
<g>
	<rect x="297.5" y="263.1" fill="#FFFFFF" width="10.9" height="10.9"/>
	<rect x="297.5" y="247.9" fill="#FFFFFF" width="10.9" height="10.9"/>
	<rect x="282.4" y="263.1" fill="#FFFFFF" width="10.9" height="10.9"/>
	<rect x="312.7" y="263.1" fill="#FFFFFF" width="10.9" height="10.9"/>
	<rect x="297.5" y="278.2" fill="#FFFFFF" width="10.9" height="10.9"/>
	<rect x="282.4" y="278.2" fill="#FFFFFF" width="10.9" height="10.9"/>
	<rect x="312.7" y="278.2" fill="#FFFFFF" width="10.9" height="10.9"/>
	<rect x="312.7" y="247.9" fill="#FFFFFF" width="10.9" height="10.9"/>
	<rect x="277.6" y="242.5" fill="#FFFFFF" width="10.9" height="10.9"/>
</g>
<g>
	<rect x="276.2" y="-104.4" fill="#FFFFFF" width="3.7" height="3.7"/>
	<rect x="276.2" y="-109.6" fill="#FFFFFF" width="3.7" height="3.7"/>
	<rect x="271" y="-104.4" fill="#FFFFFF" width="3.7" height="3.7"/>
	<rect x="281.4" y="-104.4" fill="#FFFFFF" width="3.7" height="3.7"/>
	<rect x="276.2" y="-99.2" fill="#FFFFFF" width="3.7" height="3.7"/>
	<rect x="271" y="-99.2" fill="#FFFFFF" width="3.7" height="3.7"/>
	<rect x="281.4" y="-99.2" fill="#FFFFFF" width="3.7" height="3.7"/>
	<rect x="281.4" y="-109.6" fill="#FFFFFF" width="3.7" height="3.7"/>
	<rect x="269.4" y="-111.5" fill="#FFFFFF" width="3.7" height="3.7"/>
</g>
<g>
	<g>
		<path fill="#FFFFFF" d="M288.9-48.9v-8.6c0-0.3,0.1-0.6,0.4-0.8c0.2-0.2,0.5-0.4,0.8-0.4h3.3c1.3,0,2.3,0.3,3.1,1
			c0.7,0.7,1.1,1.6,1.1,2.7v0c0,1.2-0.4,2.2-1.2,2.8c-0.8,0.7-1.9,1-3.2,1h-1.8v2.2c0,0.3-0.1,0.6-0.4,0.8c-0.2,0.2-0.5,0.4-0.8,0.4
			s-0.6-0.1-0.8-0.4C289-48.3,288.9-48.6,288.9-48.9z M291.3-53.2h1.9c0.6,0,1-0.2,1.4-0.5c0.3-0.3,0.5-0.7,0.5-1.2v0
			c0-0.5-0.2-0.9-0.5-1.2c-0.3-0.3-0.8-0.4-1.4-0.4h-1.9V-53.2z"/>
		<path fill="#FFFFFF" d="M299-58.1L299-58.1c0-0.4,0.1-0.6,0.4-0.8c0.2-0.2,0.6-0.3,0.9-0.3c0.4,0,0.7,0.1,0.9,0.3
			c0.2,0.2,0.4,0.5,0.4,0.8v0c0,0.3-0.1,0.6-0.4,0.8c-0.2,0.2-0.6,0.3-0.9,0.3c-0.4,0-0.7-0.1-0.9-0.3C299.2-57.5,299-57.8,299-58.1
			z M299.2-48.9v-6.2c0-0.3,0.1-0.6,0.4-0.8c0.2-0.2,0.5-0.3,0.8-0.3c0.3,0,0.6,0.1,0.8,0.3c0.2,0.2,0.4,0.5,0.4,0.8v6.2
			c0,0.3-0.1,0.6-0.4,0.8c-0.2,0.2-0.5,0.3-0.8,0.3c-0.3,0-0.6-0.1-0.8-0.3C299.3-48.3,299.2-48.6,299.2-48.9z"/>
		<path fill="#FFFFFF" d="M303.6-48c-0.2-0.2-0.3-0.4-0.3-0.7c0-0.3,0.1-0.6,0.3-0.8l2.1-2.5l-1.9-2.2c-0.3-0.3-0.4-0.6-0.4-0.9
			c0-0.3,0.1-0.6,0.3-0.8c0.2-0.2,0.5-0.3,0.8-0.3c0.4,0,0.8,0.2,1.1,0.6l1.5,2.1l1.6-2.1c0.3-0.4,0.7-0.6,1-0.6
			c0.3,0,0.6,0.1,0.8,0.3c0.2,0.2,0.3,0.4,0.3,0.7c0,0.3-0.1,0.5-0.3,0.8l-2,2.4l2.1,2.4c0.3,0.3,0.4,0.6,0.4,0.9
			c0,0.3-0.1,0.6-0.3,0.8c-0.2,0.2-0.5,0.3-0.8,0.3c-0.4,0-0.8-0.2-1.1-0.6l-1.7-2.2l-1.7,2.2c-0.3,0.4-0.7,0.6-1,0.6
			C304.1-47.7,303.9-47.8,303.6-48z"/>
		<path fill="#FFFFFF" d="M319.3-48.7c-0.8,0.7-1.8,1-2.9,1c-1.3,0-2.3-0.4-3.1-1.2c-0.8-0.8-1.2-1.8-1.2-3.1v0
			c0-1.2,0.4-2.2,1.2-3.1c0.8-0.8,1.8-1.3,3-1.3c0.7,0,1.3,0.1,1.8,0.4c0.5,0.3,1,0.6,1.3,1c0.3,0.4,0.5,0.8,0.7,1.3
			c0.2,0.5,0.2,0.9,0.2,1.4c0,0.3-0.1,0.6-0.3,0.8c-0.2,0.2-0.5,0.3-0.8,0.3h-4.7c0.1,0.5,0.3,0.9,0.7,1.2s0.8,0.4,1.3,0.4
			c0.6,0,1.2-0.2,1.7-0.6c0.2-0.1,0.4-0.2,0.6-0.2c0.3,0,0.5,0.1,0.7,0.3c0.2,0.2,0.3,0.4,0.3,0.7C319.6-49.1,319.5-48.8,319.3-48.7
			z M314.4-52.7h3.6c-0.1-0.5-0.3-1-0.6-1.3c-0.3-0.3-0.7-0.5-1.2-0.5c-0.5,0-0.9,0.2-1.2,0.5C314.7-53.6,314.5-53.2,314.4-52.7z"/>
		<path fill="#FFFFFF" d="M322.1-48.9v-9.2c0-0.3,0.1-0.6,0.4-0.8c0.2-0.2,0.5-0.3,0.8-0.3c0.3,0,0.6,0.1,0.8,0.3
			c0.2,0.2,0.4,0.5,0.4,0.8v9.2c0,0.3-0.1,0.6-0.4,0.8c-0.2,0.2-0.5,0.3-0.8,0.3c-0.3,0-0.6-0.1-0.8-0.3
			C322.2-48.3,322.1-48.6,322.1-48.9z"/>
		<path fill="rgba(255,255,255,0.8)" d="M327-48.9v-8.6c0-0.3,0.1-0.6,0.4-0.8c0.2-0.2,0.5-0.4,0.8-0.4h3.3c1.3,0,2.3,0.3,3.1,1
			c0.7,0.7,1.1,1.6,1.1,2.7v0c0,1.2-0.4,2.2-1.2,2.8c-0.8,0.7-1.9,1-3.2,1h-1.8v2.2c0,0.3-0.1,0.6-0.4,0.8c-0.2,0.2-0.5,0.4-0.8,0.4
			c-0.3,0-0.6-0.1-0.8-0.4C327.1-48.3,327-48.6,327-48.9z M329.4-53.2h1.9c0.6,0,1-0.2,1.4-0.5c0.3-0.3,0.5-0.7,0.5-1.2v0
			c0-0.5-0.2-0.9-0.5-1.2c-0.3-0.3-0.8-0.4-1.4-0.4h-1.9V-53.2z"/>
		<path fill="rgba(255,255,255,0.8)" d="M339.3-47.7c-0.8,0-1.5-0.2-2-0.7c-0.5-0.5-0.8-1.1-0.8-1.9v0c0-0.9,0.3-1.5,0.9-2
			c0.6-0.4,1.4-0.7,2.5-0.7c0.7,0,1.4,0.1,2,0.3v-0.1c0-1-0.6-1.5-1.8-1.5c-0.6,0-1.1,0.1-1.6,0.2c-0.1,0-0.2,0.1-0.3,0.1
			c-0.3,0-0.5-0.1-0.7-0.3c-0.2-0.2-0.3-0.4-0.3-0.7c0-0.2,0.1-0.4,0.2-0.6c0.1-0.2,0.3-0.3,0.5-0.4c0.8-0.3,1.7-0.4,2.7-0.4
			c1.3,0,2.2,0.3,2.8,0.9c0.6,0.6,0.9,1.5,0.9,2.7v3.8c0,0.3-0.1,0.6-0.3,0.8c-0.2,0.2-0.5,0.3-0.8,0.3c-0.3,0-0.6-0.1-0.8-0.3
			c-0.2-0.2-0.3-0.4-0.3-0.7v0C341.2-48,340.4-47.7,339.3-47.7z M340-49.3c0.5,0,1-0.1,1.3-0.4c0.3-0.3,0.5-0.6,0.5-1.1v-0.4
			c-0.4-0.2-0.9-0.3-1.5-0.3c-0.5,0-0.9,0.1-1.2,0.3c-0.3,0.2-0.4,0.5-0.4,0.9v0c0,0.3,0.1,0.6,0.4,0.7
			C339.4-49.4,339.7-49.3,340-49.3z"/>
		<path fill="rgba(255,255,255,0.8)" d="M347.8-45.3c-0.5,0-0.9-0.1-1.3-0.2c-0.5-0.2-0.7-0.5-0.7-1c0-0.3,0.1-0.5,0.3-0.7
			c0.2-0.2,0.4-0.3,0.7-0.3c0.1,0,0.3,0,0.4,0.1c0.2,0.1,0.4,0.1,0.5,0.1c0.2,0,0.4,0,0.5-0.1c0.1-0.1,0.2-0.2,0.3-0.4l0.1-0.2
			l-2.8-6.6c-0.1-0.2-0.1-0.4-0.1-0.5c0-0.3,0.1-0.6,0.3-0.8c0.2-0.2,0.5-0.3,0.8-0.3c0.5,0,0.9,0.3,1.1,0.9l1.8,4.9l1.7-4.8
			c0.2-0.6,0.6-0.9,1.1-0.9c0.3,0,0.6,0.1,0.8,0.3c0.2,0.2,0.3,0.5,0.3,0.8c0,0.2,0,0.4-0.1,0.6l-2.9,7c-0.4,0.9-0.7,1.5-1.2,1.8
			C349-45.5,348.4-45.3,347.8-45.3z"/>
	</g>
</g>
<g>
	<rect x="276.2" y="-54.2" fill="#FFFFFF" width="3.7" height="3.7"/>
	<rect x="276.2" y="-59.4" fill="#FFFFFF" width="3.7" height="3.7"/>
	<rect x="271" y="-54.2" fill="#FFFFFF" width="3.7" height="3.7"/>
	<rect x="281.4" y="-54.2" fill="#FFFFFF" width="3.7" height="3.7"/>
	<rect x="276.2" y="-49" fill="#FFFFFF" width="3.7" height="3.7"/>
	<rect x="271" y="-49" fill="#FFFFFF" width="3.7" height="3.7"/>
	<rect x="281.4" y="-49" fill="#FFFFFF" width="3.7" height="3.7"/>
	<rect x="281.4" y="-59.4" fill="#FFFFFF" width="3.7" height="3.7"/>
	<rect x="269.4" y="-61.3" fill="#FFFFFF" width="3.7" height="3.7"/>
</g>
<g>
	<path fill="rgba(255,255,255,0.8)" d="M219.9-50.3c-0.5,0-0.9-0.2-1.2-0.6h-0.1c0,0.4,0.1,0.6,0.1,0.6v1.8h-1.2v-6.3h1l0.2,0.6h0.1
		c0.3-0.4,0.7-0.6,1.2-0.6c0.5,0,0.9,0.2,1.2,0.6s0.4,1,0.4,1.7c0,0.5-0.1,0.9-0.2,1.2s-0.3,0.6-0.6,0.8S220.3-50.3,219.9-50.3z
		 M219.6-53.9c-0.3,0-0.5,0.1-0.6,0.3s-0.2,0.5-0.2,0.9v0.1c0,0.5,0.1,0.8,0.2,1s0.4,0.3,0.7,0.3c0.5,0,0.8-0.4,0.8-1.3
		c0-0.4-0.1-0.8-0.2-1S219.9-53.9,219.6-53.9z"/>
	<path fill="rgba(255,255,255,0.8)" d="M226.6-52.6c0,0.7-0.2,1.3-0.6,1.7s-0.9,0.6-1.6,0.6c-0.4,0-0.8-0.1-1.1-0.3s-0.6-0.4-0.7-0.8
		s-0.3-0.7-0.3-1.2c0-0.7,0.2-1.3,0.6-1.7s0.9-0.6,1.6-0.6c0.4,0,0.8,0.1,1.1,0.3s0.6,0.4,0.7,0.8S226.6-53.1,226.6-52.6z
		 M223.6-52.6c0,0.4,0.1,0.8,0.2,1s0.4,0.3,0.7,0.3c0.3,0,0.5-0.1,0.7-0.3s0.2-0.5,0.2-1c0-0.4-0.1-0.8-0.2-1s-0.4-0.3-0.7-0.3
		c-0.3,0-0.5,0.1-0.7,0.3S223.6-53,223.6-52.6z"/>
	<path fill="rgba(255,255,255,0.8)" d="M231.2-50.4l-0.3-1.5l-0.5-1.9h0l-0.8,3.5h-1.3l-1.2-4.4h1.2l0.5,1.9c0.1,0.3,0.2,0.8,0.2,1.4h0
		c0-0.2,0.1-0.5,0.1-0.9l0.1-0.3l0.5-2.1h1.3l0.5,2.1c0,0.1,0,0.1,0,0.3s0,0.2,0.1,0.4s0,0.2,0.1,0.4s0,0.2,0,0.3h0
		c0-0.2,0.1-0.4,0.1-0.8s0.1-0.5,0.1-0.7l0.5-1.9h1.2l-1.3,4.4H231.2z"/>
	<path fill="rgba(255,255,255,0.8)" d="M236.4-50.3c-0.7,0-1.3-0.2-1.6-0.6s-0.6-0.9-0.6-1.6c0-0.7,0.2-1.3,0.5-1.7s0.9-0.6,1.5-0.6
		c0.6,0,1.1,0.2,1.4,0.5s0.5,0.8,0.5,1.5v0.6h-2.8c0,0.3,0.1,0.6,0.3,0.8s0.5,0.3,0.8,0.3c0.3,0,0.5,0,0.7-0.1s0.5-0.1,0.7-0.3v0.9
		c-0.2,0.1-0.4,0.2-0.7,0.2S236.7-50.3,236.4-50.3z M236.2-54c-0.3,0-0.5,0.1-0.6,0.2s-0.2,0.4-0.2,0.7h1.7c0-0.3-0.1-0.5-0.2-0.7
		S236.5-54,236.2-54z"/>
	<path fill="rgba(255,255,255,0.8)" d="M241.6-54.9c0.2,0,0.3,0,0.4,0l-0.1,1.1c-0.1,0-0.2,0-0.4,0c-0.4,0-0.7,0.1-0.9,0.3s-0.3,0.5-0.3,0.8v2.2
		h-1.2v-4.4h0.9l0.2,0.7h0.1c0.1-0.2,0.3-0.4,0.5-0.6S241.3-54.9,241.6-54.9z"/>
	<path fill="rgba(255,255,255,0.8)" d="M244.7-50.3c-0.7,0-1.3-0.2-1.6-0.6s-0.6-0.9-0.6-1.6c0-0.7,0.2-1.3,0.5-1.7s0.9-0.6,1.5-0.6
		c0.6,0,1.1,0.2,1.4,0.5s0.5,0.8,0.5,1.5v0.6h-2.8c0,0.3,0.1,0.6,0.3,0.8s0.5,0.3,0.8,0.3c0.3,0,0.5,0,0.7-0.1s0.5-0.1,0.7-0.3v0.9
		c-0.2,0.1-0.4,0.2-0.7,0.2S245.1-50.3,244.7-50.3z M244.6-54c-0.3,0-0.5,0.1-0.6,0.2s-0.2,0.4-0.2,0.7h1.7c0-0.3-0.1-0.5-0.2-0.7
		S244.8-54,244.6-54z"/>
	<path fill="rgba(255,255,255,0.8)" d="M248.9-50.3c-0.5,0-0.9-0.2-1.2-0.6s-0.4-1-0.4-1.7c0-0.7,0.1-1.3,0.4-1.7s0.7-0.6,1.2-0.6
		c0.5,0,1,0.2,1.3,0.6h0c-0.1-0.3-0.1-0.6-0.1-0.9v-1.4h1.2v6.1h-0.9l-0.2-0.6h-0.1C249.8-50.5,249.4-50.3,248.9-50.3z M249.3-51.3
		c0.3,0,0.5-0.1,0.7-0.3s0.2-0.5,0.2-0.9v-0.1c0-0.5-0.1-0.8-0.2-1s-0.4-0.3-0.7-0.3c-0.3,0-0.5,0.1-0.6,0.3s-0.2,0.6-0.2,1
		s0.1,0.8,0.2,1S249-51.3,249.3-51.3z"/>
	<path fill="rgba(255,255,255,0.8)" d="M257.1-54.9c0.5,0,0.9,0.2,1.2,0.6s0.4,1,0.4,1.7c0,0.7-0.2,1.3-0.5,1.7s-0.7,0.6-1.2,0.6
		c-0.5,0-0.9-0.2-1.2-0.6h-0.1l-0.2,0.5h-0.9v-6.1h1.2v1.4c0,0.2,0,0.5,0,0.9h0C256.1-54.6,256.5-54.9,257.1-54.9z M256.7-53.9
		c-0.3,0-0.5,0.1-0.6,0.3s-0.2,0.5-0.2,0.9v0.1c0,0.5,0.1,0.8,0.2,1s0.4,0.3,0.7,0.3c0.2,0,0.4-0.1,0.6-0.3s0.2-0.6,0.2-1
		s-0.1-0.8-0.2-1S256.9-53.9,256.7-53.9z"/>
	<path fill="rgba(255,255,255,0.8)" d="M259.1-54.8h1.3l0.8,2.5c0.1,0.2,0.1,0.5,0.1,0.8h0c0-0.3,0.1-0.5,0.2-0.8l0.8-2.5h1.3l-1.8,4.9
		c-0.2,0.5-0.4,0.8-0.7,1s-0.7,0.3-1.1,0.3c-0.2,0-0.4,0-0.6-0.1v-0.9c0.1,0,0.3,0.1,0.5,0.1c0.2,0,0.4-0.1,0.6-0.2s0.3-0.3,0.4-0.6
		l0.1-0.2L259.1-54.8z"/>
</g>
<g>
	<g>
		<path fill="#FFFFFF" d="M288.9-2.9v-8.6c0-0.3,0.1-0.6,0.4-0.8c0.2-0.2,0.5-0.4,0.8-0.4h3.3c1.3,0,2.3,0.3,3.1,1
			c0.7,0.7,1.1,1.6,1.1,2.7v0c0,1.2-0.4,2.2-1.2,2.8c-0.8,0.7-1.9,1-3.2,1h-1.8v2.2c0,0.3-0.1,0.6-0.4,0.8c-0.2,0.2-0.5,0.4-0.8,0.4
			s-0.6-0.1-0.8-0.4C289-2.3,288.9-2.6,288.9-2.9z M291.3-7.2h1.9c0.6,0,1-0.2,1.4-0.5c0.3-0.3,0.5-0.7,0.5-1.2v0
			c0-0.5-0.2-0.9-0.5-1.2c-0.3-0.3-0.8-0.4-1.4-0.4h-1.9V-7.2z"/>
		<path fill="#FFFFFF" d="M299-12.1L299-12.1c0-0.4,0.1-0.6,0.4-0.8c0.2-0.2,0.6-0.3,0.9-0.3c0.4,0,0.7,0.1,0.9,0.3
			c0.2,0.2,0.4,0.5,0.4,0.8v0c0,0.3-0.1,0.6-0.4,0.8c-0.2,0.2-0.6,0.3-0.9,0.3c-0.4,0-0.7-0.1-0.9-0.3C299.2-11.5,299-11.8,299-12.1
			z M299.2-2.9V-9c0-0.3,0.1-0.6,0.4-0.8c0.2-0.2,0.5-0.3,0.8-0.3c0.3,0,0.6,0.1,0.8,0.3c0.2,0.2,0.4,0.5,0.4,0.8v6.2
			c0,0.3-0.1,0.6-0.4,0.8c-0.2,0.2-0.5,0.3-0.8,0.3c-0.3,0-0.6-0.1-0.8-0.3C299.3-2.3,299.2-2.5,299.2-2.9z"/>
		<path fill="#FFFFFF" d="M303.6-1.9c-0.2-0.2-0.3-0.4-0.3-0.7s0.1-0.6,0.3-0.8l2.1-2.5l-1.9-2.2c-0.3-0.3-0.4-0.6-0.4-0.9
			c0-0.3,0.1-0.6,0.3-0.8c0.2-0.2,0.5-0.3,0.8-0.3c0.4,0,0.8,0.2,1.1,0.6l1.5,2.1l1.6-2.1c0.3-0.4,0.7-0.6,1-0.6
			c0.3,0,0.6,0.1,0.8,0.3c0.2,0.2,0.3,0.4,0.3,0.7c0,0.3-0.1,0.5-0.3,0.8l-2,2.4l2.1,2.4c0.3,0.3,0.4,0.6,0.4,0.9
			c0,0.3-0.1,0.6-0.3,0.8c-0.2,0.2-0.5,0.3-0.8,0.3c-0.4,0-0.8-0.2-1.1-0.6l-1.7-2.2l-1.7,2.2c-0.3,0.4-0.7,0.6-1,0.6
			C304.1-1.7,303.9-1.8,303.6-1.9z"/>
		<path fill="#FFFFFF" d="M319.3-2.6c-0.8,0.7-1.8,1-2.9,1c-1.3,0-2.3-0.4-3.1-1.2c-0.8-0.8-1.2-1.8-1.2-3.1v0
			c0-1.2,0.4-2.2,1.2-3.1c0.8-0.8,1.8-1.3,3-1.3c0.7,0,1.3,0.1,1.8,0.4c0.5,0.3,1,0.6,1.3,1c0.3,0.4,0.5,0.8,0.7,1.3
			c0.2,0.5,0.2,0.9,0.2,1.4c0,0.3-0.1,0.6-0.3,0.8c-0.2,0.2-0.5,0.3-0.8,0.3h-4.7c0.1,0.5,0.3,0.9,0.7,1.2s0.8,0.4,1.3,0.4
			c0.6,0,1.2-0.2,1.7-0.6c0.2-0.1,0.4-0.2,0.6-0.2c0.3,0,0.5,0.1,0.7,0.3c0.2,0.2,0.3,0.4,0.3,0.7C319.6-3,319.5-2.8,319.3-2.6z
			 M314.4-6.6h3.6c-0.1-0.5-0.3-1-0.6-1.3c-0.3-0.3-0.7-0.5-1.2-0.5c-0.5,0-0.9,0.2-1.2,0.5C314.7-7.6,314.5-7.2,314.4-6.6z"/>
		<path fill="#FFFFFF" d="M322.1-2.9v-9.2c0-0.3,0.1-0.6,0.4-0.8c0.2-0.2,0.5-0.3,0.8-0.3c0.3,0,0.6,0.1,0.8,0.3
			c0.2,0.2,0.4,0.5,0.4,0.8v9.2c0,0.3-0.1,0.6-0.4,0.8c-0.2,0.2-0.5,0.3-0.8,0.3c-0.3,0-0.6-0.1-0.8-0.3
			C322.2-2.3,322.1-2.5,322.1-2.9z"/>
		<path fill="rgba(255,255,255,0.8)" d="M327-2.9v-8.6c0-0.3,0.1-0.6,0.4-0.8c0.2-0.2,0.5-0.4,0.8-0.4h3.3c1.3,0,2.3,0.3,3.1,1
			c0.7,0.7,1.1,1.6,1.1,2.7v0c0,1.2-0.4,2.2-1.2,2.8c-0.8,0.7-1.9,1-3.2,1h-1.8v2.2c0,0.3-0.1,0.6-0.4,0.8c-0.2,0.2-0.5,0.4-0.8,0.4
			c-0.3,0-0.6-0.1-0.8-0.4C327.1-2.3,327-2.6,327-2.9z M329.4-7.2h1.9c0.6,0,1-0.2,1.4-0.5c0.3-0.3,0.5-0.7,0.5-1.2v0
			c0-0.5-0.2-0.9-0.5-1.2c-0.3-0.3-0.8-0.4-1.4-0.4h-1.9V-7.2z"/>
		<path fill="rgba(255,255,255,0.8)" d="M339.3-1.6c-0.8,0-1.5-0.2-2-0.7c-0.5-0.5-0.8-1.1-0.8-1.9v0c0-0.9,0.3-1.5,0.9-2c0.6-0.4,1.4-0.7,2.5-0.7
			c0.7,0,1.4,0.1,2,0.3v-0.1c0-1-0.6-1.5-1.8-1.5c-0.6,0-1.1,0.1-1.6,0.2c-0.1,0-0.2,0.1-0.3,0.1c-0.3,0-0.5-0.1-0.7-0.3
			c-0.2-0.2-0.3-0.4-0.3-0.7c0-0.2,0.1-0.4,0.2-0.6c0.1-0.2,0.3-0.3,0.5-0.4c0.8-0.3,1.7-0.4,2.7-0.4c1.3,0,2.2,0.3,2.8,0.9
			c0.6,0.6,0.9,1.5,0.9,2.7v3.8c0,0.3-0.1,0.6-0.3,0.8c-0.2,0.2-0.5,0.3-0.8,0.3c-0.3,0-0.6-0.1-0.8-0.3c-0.2-0.2-0.3-0.4-0.3-0.7v0
			C341.2-2,340.4-1.6,339.3-1.6z M340-3.3c0.5,0,1-0.1,1.3-0.4c0.3-0.3,0.5-0.6,0.5-1.1v-0.4c-0.4-0.2-0.9-0.3-1.5-0.3
			c-0.5,0-0.9,0.1-1.2,0.3c-0.3,0.2-0.4,0.5-0.4,0.9v0c0,0.3,0.1,0.6,0.4,0.7C339.4-3.3,339.7-3.3,340-3.3z"/>
		<path fill="rgba(255,255,255,0.8)" d="M347.8,0.8c-0.5,0-0.9-0.1-1.3-0.2c-0.5-0.2-0.7-0.5-0.7-1c0-0.3,0.1-0.5,0.3-0.7c0.2-0.2,0.4-0.3,0.7-0.3
			c0.1,0,0.3,0,0.4,0.1c0.2,0.1,0.4,0.1,0.5,0.1c0.2,0,0.4,0,0.5-0.1c0.1-0.1,0.2-0.2,0.3-0.4l0.1-0.2l-2.8-6.6
			c-0.1-0.2-0.1-0.4-0.1-0.5c0-0.3,0.1-0.6,0.3-0.8c0.2-0.2,0.5-0.3,0.8-0.3c0.5,0,0.9,0.3,1.1,0.9l1.8,4.9l1.7-4.8
			c0.2-0.6,0.6-0.9,1.1-0.9c0.3,0,0.6,0.1,0.8,0.3c0.2,0.2,0.3,0.5,0.3,0.8c0,0.2,0,0.4-0.1,0.6l-2.9,7c-0.4,0.9-0.7,1.5-1.2,1.8
			C349,0.6,348.4,0.8,347.8,0.8z"/>
	</g>
</g>
<g>
	<path fill="rgba(255,255,255,0.8)" d="M290.9-15.7c-0.4,0-0.7-0.1-0.9-0.4h0c0,0.3,0,0.5,0,0.5v1.4H289v-4.9h0.8l0.1,0.4h0c0.2-0.3,0.5-0.5,1-0.5
		c0.4,0,0.7,0.2,1,0.5s0.3,0.7,0.3,1.3c0,0.4-0.1,0.7-0.2,1s-0.3,0.5-0.5,0.6C291.4-15.8,291.2-15.7,290.9-15.7z M290.6-18.5
		c-0.2,0-0.4,0.1-0.5,0.2s-0.2,0.4-0.2,0.7v0.1c0,0.4,0.1,0.6,0.2,0.8c0.1,0.2,0.3,0.2,0.5,0.2c0.4,0,0.6-0.3,0.6-1
		c0-0.3-0.1-0.6-0.2-0.8S290.9-18.5,290.6-18.5z"/>
	<path fill="rgba(255,255,255,0.8)" d="M296.1-17.5c0,0.6-0.1,1-0.4,1.3s-0.7,0.5-1.2,0.5c-0.3,0-0.6-0.1-0.9-0.2c-0.3-0.1-0.4-0.4-0.6-0.6
		c-0.1-0.3-0.2-0.6-0.2-0.9c0-0.6,0.1-1,0.4-1.3c0.3-0.3,0.7-0.5,1.2-0.5c0.3,0,0.6,0.1,0.9,0.2s0.4,0.3,0.6,0.6
		C296.1-18.1,296.1-17.8,296.1-17.5z M293.7-17.5c0,0.3,0.1,0.6,0.2,0.8c0.1,0.2,0.3,0.3,0.5,0.3c0.2,0,0.4-0.1,0.5-0.3
		c0.1-0.2,0.2-0.4,0.2-0.8c0-0.3-0.1-0.6-0.2-0.8c-0.1-0.2-0.3-0.3-0.5-0.3c-0.2,0-0.4,0.1-0.5,0.3
		C293.8-18.1,293.7-17.8,293.7-17.5z"/>
	<path fill="rgba(255,255,255,0.8)" d="M299.7-15.8l-0.3-1.2l-0.4-1.5h0l-0.6,2.7h-1l-1-3.4h0.9l0.4,1.5c0.1,0.3,0.1,0.6,0.2,1.1h0
		c0-0.2,0-0.4,0.1-0.7l0-0.3l0.4-1.6h1l0.4,1.6c0,0,0,0.1,0,0.2c0,0.1,0,0.2,0.1,0.3c0,0.1,0,0.2,0,0.3c0,0.1,0,0.2,0,0.2h0
		c0-0.1,0.1-0.3,0.1-0.6c0-0.3,0.1-0.4,0.1-0.5l0.4-1.5h0.9l-1,3.4H299.7z"/>
	<path fill="rgba(255,255,255,0.8)" d="M303.8-15.7c-0.6,0-1-0.2-1.3-0.5c-0.3-0.3-0.5-0.7-0.5-1.3c0-0.6,0.1-1,0.4-1.3s0.7-0.5,1.2-0.5
		c0.5,0,0.9,0.1,1.1,0.4s0.4,0.7,0.4,1.1v0.5H303c0,0.3,0.1,0.5,0.2,0.6s0.4,0.2,0.6,0.2c0.2,0,0.4,0,0.6-0.1c0.2,0,0.4-0.1,0.6-0.2
		v0.7c-0.2,0.1-0.3,0.1-0.5,0.2S304.1-15.7,303.8-15.7z M303.7-18.6c-0.2,0-0.4,0.1-0.5,0.2s-0.2,0.3-0.2,0.5h1.3
		c0-0.2-0.1-0.4-0.2-0.5C304.1-18.5,303.9-18.6,303.7-18.6z"/>
	<path fill="rgba(255,255,255,0.8)" d="M307.9-19.2c0.1,0,0.2,0,0.3,0l-0.1,0.9c-0.1,0-0.2,0-0.3,0c-0.3,0-0.5,0.1-0.7,0.2
		c-0.2,0.2-0.3,0.4-0.3,0.6v1.7H306v-3.4h0.7l0.1,0.6h0c0.1-0.2,0.3-0.3,0.4-0.5C307.5-19.2,307.7-19.2,307.9-19.2z"/>
	<path fill="rgba(255,255,255,0.8)" d="M310.4-15.7c-0.6,0-1-0.2-1.3-0.5c-0.3-0.3-0.5-0.7-0.5-1.3c0-0.6,0.1-1,0.4-1.3c0.3-0.3,0.7-0.5,1.2-0.5
		c0.5,0,0.9,0.1,1.1,0.4s0.4,0.7,0.4,1.1v0.5h-2.2c0,0.3,0.1,0.5,0.2,0.6s0.4,0.2,0.6,0.2c0.2,0,0.4,0,0.6-0.1
		c0.2,0,0.4-0.1,0.6-0.2v0.7c-0.2,0.1-0.3,0.1-0.5,0.2S310.7-15.7,310.4-15.7z M310.3-18.6c-0.2,0-0.4,0.1-0.5,0.2s-0.2,0.3-0.2,0.5
		h1.3c0-0.2-0.1-0.4-0.2-0.5S310.5-18.6,310.3-18.6z"/>
	<path fill="rgba(255,255,255,0.8)" d="M313.7-15.7c-0.4,0-0.7-0.2-1-0.5s-0.3-0.7-0.3-1.3c0-0.6,0.1-1,0.4-1.3c0.2-0.3,0.6-0.5,1-0.5
		c0.4,0,0.8,0.2,1,0.5h0c0-0.3-0.1-0.5-0.1-0.7v-1.1h0.9v4.8h-0.7l-0.2-0.4h0C314.4-15.9,314.1-15.7,313.7-15.7z M314-16.4
		c0.2,0,0.4-0.1,0.5-0.2c0.1-0.1,0.2-0.4,0.2-0.7v-0.1c0-0.4-0.1-0.6-0.2-0.8s-0.3-0.2-0.6-0.2c-0.2,0-0.4,0.1-0.5,0.3
		c-0.1,0.2-0.2,0.4-0.2,0.8s0.1,0.6,0.2,0.8C313.6-16.5,313.8-16.4,314-16.4z"/>
	<path fill="rgba(255,255,255,0.8)" d="M320.1-19.2c0.4,0,0.7,0.2,1,0.5c0.2,0.3,0.3,0.7,0.3,1.3c0,0.6-0.1,1-0.4,1.3c-0.2,0.3-0.6,0.5-1,0.5
		c-0.4,0-0.7-0.1-0.9-0.4h-0.1l-0.2,0.4h-0.7v-4.8h0.9v1.1c0,0.1,0,0.4,0,0.7h0C319.3-19.1,319.7-19.2,320.1-19.2z M319.8-18.5
		c-0.2,0-0.4,0.1-0.5,0.2c-0.1,0.1-0.2,0.4-0.2,0.7v0.1c0,0.4,0.1,0.6,0.2,0.8s0.3,0.2,0.5,0.2c0.2,0,0.3-0.1,0.5-0.3
		s0.2-0.4,0.2-0.8s-0.1-0.6-0.2-0.8S320-18.5,319.8-18.5z"/>
	<path fill="rgba(255,255,255,0.8)" d="M321.7-19.2h1l0.6,1.9c0.1,0.2,0.1,0.4,0.1,0.6h0c0-0.2,0.1-0.4,0.1-0.6l0.6-1.9h1l-1.5,3.9
		c-0.1,0.4-0.3,0.6-0.6,0.8c-0.2,0.2-0.5,0.3-0.9,0.3c-0.2,0-0.3,0-0.5-0.1V-15c0.1,0,0.2,0,0.4,0c0.2,0,0.3-0.1,0.4-0.2
		s0.2-0.3,0.3-0.5l0.1-0.2L321.7-19.2z"/>
</g>
<text transform="matrix(1 0 0 1 176.0468 -106.4789)" fill="rgba(255,255,255,0.8)" font-family="'GothamRounded-Bold'" font-size="6px">Powered by</text>
</svg>
