<?xml version="1.0" encoding="UTF-8"?>
<svg xmlns="http://www.w3.org/2000/svg" xmlns:xlink="http://www.w3.org/1999/xlink" viewBox="0 0 32 32" version="1.1" fill="#5e5e5e"><g id="surface1" fill="#5e5e5e"><path style=" " d="M 3 7 L 3 25 L 16 25 C 16 24.328125 16.125 23.648438 16.34375 23 L 5 23 L 5 9.875 L 15.4375 16.84375 L 16 17.1875 L 16.5625 16.84375 L 27 9.875 L 27 14.1875 L 29 16.1875 L 29 7 Z M 7.3125 9 L 24.6875 9 L 16 14.78125 Z M 27.28125 17.28125 L 25.875 18.71875 L 28.15625 21 L 22.03125 21 C 19.824219 21 18 22.824219 18 25.03125 L 18 32 L 20 32 L 20 25.03125 C 20 23.914063 20.914063 23 22.03125 23 L 28.15625 23 L 25.875 25.28125 L 27.28125 26.71875 L 32 22 Z " fill="#5e5e5e"/></g></svg>
