<?xml version="1.0" encoding="UTF-8"?>
<svg xmlns="http://www.w3.org/2000/svg" xmlns:xlink="http://www.w3.org/1999/xlink" viewBox="0 0 32 32" version="1.1" fill="#5e5e5e"><g id="surface1" fill="#5e5e5e"><path style=" " d="M 9 3 C 7.355469 3 6 4.355469 6 6 L 6 24 C 6 25.644531 7.355469 27 9 27 L 9 25 C 8.433594 25 8 24.566406 8 24 C 8 23.433594 8.433594 23 9 23 L 24 23 L 24 25 L 17 25 L 17 27 L 26 27 L 26 3 Z M 9 5 L 24 5 L 24 21 L 9 21 C 8.648438 21 8.316406 21.074219 8 21.1875 L 8 6 C 8 5.433594 8.433594 5 9 5 Z M 11 7 L 11 9 L 13 9 L 13 7 Z M 11 12 L 11 14 L 13 14 L 13 12 Z M 11 17 L 11 19 L 13 19 L 13 17 Z M 11 24 L 11 29 L 13 27 L 15 29 L 15 24 Z " fill="#5e5e5e"/></g></svg>
