<?xml version="1.0" encoding="UTF-8"?>
<svg xmlns="http://www.w3.org/2000/svg" xmlns:xlink="http://www.w3.org/1999/xlink" viewBox="0 0 32 32" version="1.1" fill="#5e5e5e"><g id="surface1" fill="#5e5e5e"><path style=" " d="M 7 4 C 6.476563 4 5.941406 4.183594 5.5625 4.5625 C 5.183594 4.941406 5 5.476563 5 6 L 5 22 C 5 22.523438 5.183594 23.058594 5.5625 23.4375 C 5.941406 23.816406 6.476563 24 7 24 L 13 24 L 13 26 C 13 26.523438 13.183594 27.058594 13.5625 27.4375 C 13.941406 27.816406 14.476563 28 15 28 L 25 28 C 25.523438 28 26.058594 27.816406 26.4375 27.4375 C 26.816406 27.058594 27 26.523438 27 26 L 27 10 C 27 9.476563 26.816406 8.941406 26.4375 8.5625 C 26.058594 8.183594 25.523438 8 25 8 L 19 8 L 19 6 C 19 5.476563 18.816406 4.941406 18.4375 4.5625 C 18.058594 4.183594 17.523438 4 17 4 Z M 7 6 L 17 6 L 17 8 L 15 8 C 14.476563 8 13.941406 8.183594 13.5625 8.5625 C 13.183594 8.941406 13 9.476563 13 10 L 13 19 L 10.5 19 L 10.5 21 L 13 21 L 13 22 L 7 22 Z M 15 10 L 25 10 L 25 26 L 15 26 Z M 18.5 23 L 18.5 25 L 21.5 25 L 21.5 23 Z " fill="#5e5e5e"/></g></svg>
