<?xml version="1.0" encoding="iso-8859-1"?>
<!-- Generator: Adobe Illustrator 20.1.0, SVG Export Plug-In . SVG Version: 6.00 Build 0)  -->
<svg xmlns="http://www.w3.org/2000/svg" xmlns:xlink="http://www.w3.org/1999/xlink" version="1.1" id="&#1057;&#1083;&#1086;&#1081;_1" x="0px" y="0px" viewBox="0 0 64 64" style="enable-background:new 0 0 64 64;" xml:space="preserve">
<linearGradient id="SVGID_1__43600" gradientUnits="userSpaceOnUse" x1="41" y1="19.0833" x2="41" y2="25.5087" spreadMethod="reflect">
	<stop offset="0" style="stop-color:#6DC7FF"/>
	<stop offset="1" style="stop-color:#E6ABFF"/>
</linearGradient>
<rect x="23" y="19" style="fill:url(#SVGID_1__43600);" width="36" height="6"/>
<linearGradient id="SVGID_2__43600" gradientUnits="userSpaceOnUse" x1="32" y1="12.8333" x2="32" y2="52.608" spreadMethod="reflect">
	<stop offset="0" style="stop-color:#1A6DFF"/>
	<stop offset="1" style="stop-color:#C822FF"/>
</linearGradient>
<path style="fill:url(#SVGID_2__43600);" d="M56,13H26c-2.757,0-5,2.243-5,5v3.434L11.723,27H6c-1.654,0-3,1.346-3,3v18  c0,1.654,1.346,3,3,3h6c1.069,0,2.003-0.566,2.534-1.41C15.434,50.459,16.653,51,18,51h30c2.206,0,4-1.794,4-4  c0-0.829-0.254-1.6-0.687-2.239C52.872,44.214,54,42.744,54,41h2c2.757,0,5-2.243,5-5V18C61,15.243,58.757,13,56,13z M13,48  c0,0.552-0.448,1-1,1h-2v-4H8v4H6c-0.552,0-1-0.448-1-1V30c0-0.552,0.448-1,1-1h6c0.552,0,1,0.448,1,1v14v2V48z M50,43h-6v2h4  c1.103,0,2,0.897,2,2s-0.897,2-2,2H18c-1.654,0-3-1.346-3-3v-2V30c0-0.823-0.334-1.568-0.872-2.111L21,23.766V28h-2v2h20  c0,2.206-1.794,4-4,4h-7v2c0,2.757-2.243,5-5,5h-2v2h2c1.902,0,3.626-0.765,4.889-2H52C52,42.103,51.103,43,50,43z M59,36  c0,1.654-1.346,3-3,3H29.315C29.75,38.089,30,37.074,30,36h5c3.309,0,6-2.691,6-6v-2H23V18c0-1.654,1.346-3,3-3h30  c1.654,0,3,1.346,3,3V36z"/>
<linearGradient id="SVGID_3__43600" gradientUnits="userSpaceOnUse" x1="53" y1="12.8333" x2="53" y2="52.608" spreadMethod="reflect">
	<stop offset="0" style="stop-color:#1A6DFF"/>
	<stop offset="1" style="stop-color:#C822FF"/>
</linearGradient>
<rect x="49" y="35" style="fill:url(#SVGID_3__43600);" width="8" height="2"/>
<linearGradient id="SVGID_4__43600" gradientUnits="userSpaceOnUse" x1="53" y1="12.8333" x2="53" y2="52.608" spreadMethod="reflect">
	<stop offset="0" style="stop-color:#1A6DFF"/>
	<stop offset="1" style="stop-color:#C822FF"/>
</linearGradient>
<rect x="49" y="31" style="fill:url(#SVGID_4__43600);" width="8" height="2"/>
</svg>
