<?xml version="1.0" encoding="iso-8859-1"?>
<!-- Generator: Adobe Illustrator 20.1.0, SVG Export Plug-In . SVG Version: 6.00 Build 0)  -->
<svg xmlns="http://www.w3.org/2000/svg" xmlns:xlink="http://www.w3.org/1999/xlink" version="1.1" id="&#1057;&#1083;&#1086;&#1081;_1" x="0px" y="0px" viewBox="0 0 64 64" style="enable-background:new 0 0 64 64;" xml:space="preserve">
<linearGradient id="SVGID_1__53007" gradientUnits="userSpaceOnUse" x1="32" y1="7.125" x2="32" y2="57.2502" spreadMethod="reflect">
	<stop offset="0" style="stop-color:#1A6DFF"/>
	<stop offset="1" style="stop-color:#C822FF"/>
</linearGradient>
<path style="fill:url(#SVGID_1__53007);" d="M58,30v-3.893c0-0.904-0.246-1.794-0.712-2.571l-4.266-7.109  C52.124,14.93,50.481,14,48.736,14H42v-4c0-1.654-1.346-3-3-3H25c-1.654,0-3,1.346-3,3v4h-6.736c-1.745,0-3.388,0.93-4.286,2.427  l-4.267,7.109C6.246,24.315,6,25.203,6,26.108V30c0,2.215,1.209,4.149,3,5.188V55H7v2h2h46h2v-2h-2V35.188  C56.791,34.149,58,32.215,58,30z M56,26.108V30c0,2.206-1.794,4-4,4s-4-1.794-4-4v-4h7.998C55.999,26,56,26.072,56,26.108z M40,18  c0,0.552-0.448,1-1,1H25c-0.552,0-1-0.448-1-1v-8c0-0.552,0.448-1,1-1h14c0.552,0,1,0.448,1,1V18z M12.692,17.456  C13.231,16.558,14.217,16,15.264,16H22v2c0,1.654,1.346,3,3,3h14c1.654,0,3-1.345,3-3v-2h6.736c1.047,0,2.032,0.558,2.571,1.456  L55.234,24H48h-2h-8h-2h-8h-2h-8h-2H8.766L12.692,17.456z M46,30c0,2.206-1.794,4-4,4s-4-1.794-4-4v-4h8V30z M36,30  c0,2.206-1.794,4-4,4s-4-1.794-4-4v-4h8V30z M26,30c0,2.206-1.794,4-4,4s-4-1.794-4-4v-4h8V30z M8,26.108  C8,26.072,8.001,26,8.002,26H16v4c0,2.206-1.794,4-4,4s-4-1.794-4-4V26.108z M11,53h13v2H11V53z M26,51v-9h5v13h-5v-2V51z M38,55h-5  V42h5V55z M40,55v-2h13v2H40z M53,51H40v-9c0-1.103-0.897-2-2-2H26c-1.103,0-2,0.898-2,2v9H11V35.91c0.326,0.055,0.659,0.09,1,0.09  c2.086,0,3.925-1.071,5-2.69c1.075,1.62,2.914,2.69,5,2.69s3.925-1.071,5-2.69c1.075,1.62,2.914,2.69,5,2.69s3.925-1.071,5-2.69  c1.075,1.62,2.914,2.69,5,2.69s3.925-1.071,5-2.69c1.075,1.62,2.914,2.69,5,2.69c0.341,0,0.674-0.035,1-0.09V51z"/>
<linearGradient id="SVGID_2__53007" gradientUnits="userSpaceOnUse" x1="46.5" y1="7.125" x2="46.5" y2="57.2502" spreadMethod="reflect">
	<stop offset="0" style="stop-color:#1A6DFF"/>
	<stop offset="1" style="stop-color:#C822FF"/>
</linearGradient>
<path style="fill:url(#SVGID_2__53007);" d="M51,42c0-1.105-0.895-2-2-2h-5c-1.105,0-2,0.895-2,2v5c0,1.105,0.895,2,2,2h5  c1.105,0,2-0.895,2-2V42z M49,47h-5v-5h5V47z"/>
<linearGradient id="SVGID_3__53007" gradientUnits="userSpaceOnUse" x1="17.5" y1="7.125" x2="17.5" y2="57.2502" spreadMethod="reflect">
	<stop offset="0" style="stop-color:#1A6DFF"/>
	<stop offset="1" style="stop-color:#C822FF"/>
</linearGradient>
<path style="fill:url(#SVGID_3__53007);" d="M22,42c0-1.105-0.895-2-2-2h-5c-1.105,0-2,0.895-2,2v5c0,1.105,0.895,2,2,2h5  c1.105,0,2-0.895,2-2V42z M20,47h-5v-5h5V47z"/>
<linearGradient id="SVGID_4__53007" gradientUnits="userSpaceOnUse" x1="32" y1="11" x2="32" y2="13" spreadMethod="reflect">
	<stop offset="0" style="stop-color:#6DC7FF"/>
	<stop offset="1" style="stop-color:#E6ABFF"/>
</linearGradient>
<rect x="26" y="11" style="fill:url(#SVGID_4__53007);" width="12" height="2"/>
<linearGradient id="SVGID_5__53007" gradientUnits="userSpaceOnUse" x1="32" y1="14.9583" x2="32" y2="17.0421" spreadMethod="reflect">
	<stop offset="0" style="stop-color:#6DC7FF"/>
	<stop offset="1" style="stop-color:#E6ABFF"/>
</linearGradient>
<rect x="26" y="15" style="fill:url(#SVGID_5__53007);" width="12" height="2"/>
<linearGradient id="SVGID_6__53007" gradientUnits="userSpaceOnUse" x1="46.5" y1="52.875" x2="46.5" y2="55.2533" spreadMethod="reflect">
	<stop offset="0" style="stop-color:#6DC7FF"/>
	<stop offset="1" style="stop-color:#E6ABFF"/>
</linearGradient>
<rect x="40" y="53" style="fill:url(#SVGID_6__53007);" width="13" height="2"/>
<linearGradient id="SVGID_7__53007" gradientUnits="userSpaceOnUse" x1="17.5" y1="52.875" x2="17.5" y2="55.2533" spreadMethod="reflect">
	<stop offset="0" style="stop-color:#6DC7FF"/>
	<stop offset="1" style="stop-color:#E6ABFF"/>
</linearGradient>
<rect x="11" y="53" style="fill:url(#SVGID_7__53007);" width="13" height="2"/>
</svg>
