<?xml version="1.0" encoding="UTF-8"?>
<svg xmlns="http://www.w3.org/2000/svg" xmlns:xlink="http://www.w3.org/1999/xlink" viewBox="0 0 80 80" version="1.1" fill="#ffffff"><g id="surface1" fill="#ffffff"><path style=" " d="M 43.9375 7.242188 L 43.683594 9.226563 L 44.722656 9.359375 L 46.222656 9.625 L 46.246094 9.628906 L 47.769531 9.984375 L 49.195313 10.386719 L 49.203125 10.390625 L 50.675781 10.886719 L 50.683594 10.890625 L 50.9375 10.988281 L 51.667969 9.128906 L 51.371094 9.011719 L 51.34375 9 L 51.324219 8.992188 L 49.835938 8.492188 L 49.789063 8.476563 L 48.269531 8.046875 L 48.222656 8.03125 L 46.671875 7.675781 L 46.652344 7.671875 L 46.625 7.664063 L 45.046875 7.382813 L 45 7.375 Z M 35.972656 7.253906 L 35 7.375 L 34.953125 7.382813 L 33.375 7.664063 L 33.347656 7.671875 L 33.328125 7.675781 L 31.777344 8.03125 L 31.730469 8.046875 L 30.210938 8.476563 L 30.164063 8.492188 L 28.675781 8.992188 L 28.65625 9 L 28.628906 9.011719 L 28.246094 9.164063 L 28.980469 11.023438 L 29.316406 10.890625 L 29.324219 10.886719 L 30.796875 10.390625 L 30.804688 10.386719 L 32.230469 9.984375 L 33.753906 9.628906 L 33.777344 9.625 L 35.277344 9.359375 L 36.222656 9.234375 Z M 40 12 C 39.449219 12 39 12.449219 39 13 C 39 13.550781 39.449219 14 40 14 C 40.550781 14 41 13.550781 41 13 C 41 12.449219 40.550781 12 40 12 Z M 45.292969 12.515625 C 44.804688 12.503906 44.382813 12.84375 44.285156 13.324219 C 44.179688 13.863281 44.53125 14.390625 45.074219 14.5 C 45.613281 14.605469 46.140625 14.253906 46.25 13.714844 C 46.355469 13.171875 46.003906 12.644531 45.464844 12.535156 C 45.40625 12.527344 45.351563 12.519531 45.292969 12.515625 Z M 34.738281 12.519531 C 34.671875 12.519531 34.605469 12.523438 34.539063 12.535156 C 33.996094 12.644531 33.644531 13.171875 33.753906 13.714844 C 33.804688 13.972656 33.957031 14.203125 34.179688 14.351563 C 34.398438 14.496094 34.667969 14.550781 34.929688 14.5 C 35.472656 14.390625 35.824219 13.867188 35.714844 13.324219 C 35.621094 12.859375 35.214844 12.523438 34.738281 12.519531 Z M 58.714844 12.824219 L 57.550781 14.453125 L 58.527344 15.140625 L 58.566406 15.171875 L 59.734375 16.09375 L 60.828125 17.035156 L 60.835938 17.046875 L 61.90625 18.0625 L 61.9375 18.09375 L 62.953125 19.164063 L 62.964844 19.171875 L 63.15625 19.398438 L 64.667969 18.089844 L 64.441406 17.828125 L 64.425781 17.8125 L 64.410156 17.792969 L 63.351563 16.683594 L 63.332031 16.667969 L 63.316406 16.648438 L 62.207031 15.589844 L 62.1875 15.574219 L 62.171875 15.558594 L 61.011719 14.550781 L 60.972656 14.519531 L 59.765625 13.570313 L 59.746094 13.558594 L 59.726563 13.542969 Z M 21.214844 12.875 L 20.273438 13.542969 L 20.253906 13.558594 L 20.234375 13.570313 L 19.027344 14.519531 L 18.988281 14.550781 L 17.828125 15.558594 L 17.8125 15.574219 L 17.792969 15.589844 L 16.683594 16.648438 L 16.667969 16.667969 L 16.648438 16.683594 L 15.589844 17.792969 L 15.574219 17.8125 L 15.558594 17.828125 L 15.269531 18.15625 L 16.78125 19.46875 L 17.035156 19.171875 L 17.046875 19.164063 L 18.0625 18.09375 L 18.09375 18.0625 L 19.164063 17.046875 L 19.171875 17.035156 L 20.265625 16.09375 L 21.433594 15.171875 L 21.472656 15.140625 L 22.371094 14.503906 Z M 29.675781 14.054688 C 29.542969 14.054688 29.410156 14.078125 29.285156 14.128906 C 28.773438 14.34375 28.53125 14.925781 28.746094 15.4375 C 28.957031 15.949219 29.539063 16.191406 30.050781 15.980469 C 30.5625 15.765625 30.804688 15.183594 30.59375 14.671875 C 30.4375 14.300781 30.078125 14.058594 29.675781 14.054688 Z M 50.355469 14.054688 C 49.941406 14.046875 49.566406 14.289063 49.40625 14.671875 C 49.195313 15.183594 49.4375 15.765625 49.949219 15.980469 C 50.460938 16.191406 51.042969 15.949219 51.253906 15.4375 C 51.46875 14.925781 51.226563 14.34375 50.714844 14.128906 C 50.601563 14.082031 50.476563 14.058594 50.355469 14.054688 Z M 25.011719 16.546875 C 24.808594 16.546875 24.609375 16.605469 24.441406 16.71875 C 23.984375 17.023438 23.859375 17.644531 24.167969 18.105469 C 24.472656 18.5625 25.09375 18.6875 25.554688 18.378906 C 26.015625 18.074219 26.136719 17.453125 25.832031 16.996094 C 25.648438 16.71875 25.339844 16.550781 25.011719 16.546875 Z M 55.015625 16.546875 C 54.675781 16.542969 54.355469 16.710938 54.167969 16.996094 C 53.859375 17.453125 53.984375 18.074219 54.441406 18.378906 C 54.902344 18.6875 55.523438 18.5625 55.828125 18.105469 C 55.976563 17.886719 56.03125 17.613281 55.980469 17.355469 C 55.929688 17.09375 55.777344 16.863281 55.554688 16.71875 C 55.394531 16.609375 55.210938 16.550781 55.015625 16.546875 Z M 20.921875 19.90625 C 20.652344 19.90625 20.390625 20.011719 20.203125 20.203125 C 19.8125 20.589844 19.8125 21.226563 20.203125 21.613281 C 20.589844 22.003906 21.226563 22.003906 21.613281 21.613281 C 22.003906 21.226563 22.003906 20.589844 21.613281 20.203125 C 21.429688 20.015625 21.183594 19.910156 20.921875 19.90625 Z M 59.105469 19.90625 C 58.835938 19.90625 58.574219 20.011719 58.386719 20.203125 C 57.996094 20.589844 57.996094 21.226563 58.386719 21.613281 C 58.773438 22.003906 59.410156 22.003906 59.796875 21.613281 C 60.1875 21.226563 60.1875 20.589844 59.796875 20.203125 C 59.613281 20.015625 59.367188 19.910156 59.105469 19.90625 Z M 62.460938 24 C 62.257813 23.996094 62.0625 24.054688 61.894531 24.167969 C 61.4375 24.472656 61.3125 25.09375 61.621094 25.550781 C 61.925781 26.011719 62.546875 26.136719 63.003906 25.828125 C 63.464844 25.519531 63.589844 24.902344 63.28125 24.441406 C 63.097656 24.167969 62.789063 24 62.460938 24 Z M 17.566406 24 C 17.226563 23.992188 16.90625 24.160156 16.71875 24.441406 C 16.414063 24.902344 16.535156 25.523438 16.996094 25.828125 C 17.457031 26.136719 18.074219 26.011719 18.382813 25.554688 C 18.6875 25.09375 18.566406 24.472656 18.105469 24.167969 C 17.945313 24.0625 17.761719 24.003906 17.566406 24 Z M 69.199219 24.625 L 67.417969 25.535156 L 67.933594 26.539063 L 67.9375 26.546875 L 68.566406 27.9375 L 68.574219 27.957031 L 69.109375 29.316406 L 69.113281 29.324219 L 69.609375 30.796875 L 69.613281 30.804688 L 70.015625 32.230469 L 70.082031 32.511719 L 72.03125 32.058594 L 71.96875 31.777344 L 71.953125 31.730469 L 71.523438 30.210938 L 71.507813 30.164063 L 71.003906 28.675781 L 71 28.65625 L 70.988281 28.628906 L 70.417969 27.175781 L 70.40625 27.15625 L 70.394531 27.132813 L 69.753906 25.714844 L 69.746094 25.691406 L 69.734375 25.671875 Z M 10.761719 24.703125 L 10.265625 25.671875 L 10.253906 25.691406 L 10.246094 25.714844 L 9.601563 27.132813 L 9.59375 27.15625 L 9.585938 27.175781 L 9.011719 28.628906 L 9 28.65625 L 8.992188 28.675781 L 8.492188 30.164063 L 8.476563 30.210938 L 8.046875 31.730469 L 8.03125 31.777344 L 7.945313 32.148438 L 9.898438 32.597656 L 9.984375 32.230469 L 10.386719 30.804688 L 10.390625 30.796875 L 10.886719 29.324219 L 10.890625 29.316406 L 11.425781 27.957031 L 11.433594 27.9375 L 12.0625 26.546875 L 12.066406 26.539063 L 12.542969 25.617188 Z M 64.953125 28.667969 C 64.820313 28.664063 64.6875 28.691406 64.5625 28.742188 C 64.050781 28.953125 63.808594 29.539063 64.019531 30.046875 C 64.234375 30.558594 64.816406 30.800781 65.328125 30.589844 C 65.839844 30.378906 66.082031 29.792969 65.871094 29.28125 C 65.714844 28.914063 65.355469 28.667969 64.953125 28.667969 Z M 15.078125 28.667969 C 14.664063 28.660156 14.289063 28.902344 14.132813 29.285156 C 13.921875 29.796875 14.164063 30.378906 14.671875 30.59375 C 15.183594 30.804688 15.769531 30.5625 15.980469 30.050781 C 16.191406 29.539063 15.949219 28.957031 15.4375 28.746094 C 15.324219 28.695313 15.203125 28.671875 15.078125 28.667969 Z M 66.484375 33.734375 C 66.417969 33.730469 66.351563 33.738281 66.285156 33.75 C 65.746094 33.859375 65.394531 34.386719 65.5 34.925781 C 65.609375 35.46875 66.136719 35.820313 66.675781 35.714844 C 67.21875 35.605469 67.570313 35.078125 67.464844 34.535156 C 67.371094 34.070313 66.960938 33.734375 66.484375 33.734375 Z M 13.546875 33.734375 C 13.058594 33.722656 12.636719 34.058594 12.539063 34.535156 C 12.488281 34.796875 12.539063 35.070313 12.6875 35.289063 C 12.835938 35.511719 13.066406 35.664063 13.328125 35.714844 C 13.585938 35.765625 13.855469 35.710938 14.078125 35.566406 C 14.296875 35.417969 14.449219 35.1875 14.5 34.925781 C 14.609375 34.386719 14.257813 33.859375 13.71875 33.75 C 13.660156 33.742188 13.605469 33.734375 13.546875 33.734375 Z M 13 39 C 12.449219 39 12 39.449219 12 40 C 12 40.550781 12.449219 41 13 41 C 13.550781 41 14 40.550781 14 40 C 14 39.449219 13.550781 39 13 39 Z M 67 39 C 66.449219 39 66 39.449219 66 40 C 66 40.550781 66.449219 41 67 41 C 67.550781 41 68 40.550781 68 40 C 68 39.449219 67.550781 39 67 39 Z M 73 39.914063 L 71 39.964844 L 71 40.003906 L 70.960938 41.570313 L 70.957031 41.582031 L 70.84375 43.144531 L 70.84375 43.152344 L 70.640625 44.722656 L 70.375 46.222656 L 70.371094 46.246094 L 70.097656 47.433594 L 72.046875 47.878906 L 72.324219 46.671875 L 72.328125 46.652344 L 72.332031 46.625 L 72.613281 45.046875 L 72.621094 45.023438 L 72.625 45 L 72.828125 43.398438 L 72.828125 43.375 L 72.832031 43.347656 L 72.953125 41.722656 L 72.957031 41.699219 L 72.957031 41.671875 L 73 40.027344 L 72 40 L 73 39.972656 Z M 9 40.003906 L 7 40.058594 L 7.039063 41.671875 L 7.042969 41.699219 L 7.046875 41.722656 L 7.167969 43.347656 L 7.171875 43.375 L 7.171875 43.398438 L 7.375 45 L 7.382813 45.046875 L 7.664063 46.625 L 7.671875 46.652344 L 7.675781 46.671875 L 7.960938 47.910156 L 9.910156 47.460938 L 9.628906 46.246094 L 9.625 46.222656 L 9.359375 44.722656 L 9.15625 43.152344 L 9.15625 43.144531 L 9.039063 41.582031 L 9.039063 41.570313 Z M 13.523438 44.265625 C 13.457031 44.265625 13.390625 44.273438 13.324219 44.285156 C 12.78125 44.394531 12.429688 44.921875 12.539063 45.464844 C 12.648438 46.003906 13.171875 46.355469 13.714844 46.25 C 14.257813 46.140625 14.609375 45.613281 14.5 45.074219 C 14.40625 44.605469 14 44.269531 13.523438 44.265625 Z M 66.507813 44.265625 C 66.019531 44.253906 65.597656 44.59375 65.5 45.074219 C 65.394531 45.613281 65.746094 46.140625 66.285156 46.25 C 66.828125 46.355469 67.355469 46.003906 67.464844 45.464844 C 67.570313 44.921875 67.21875 44.394531 66.675781 44.285156 C 66.621094 44.277344 66.566406 44.269531 66.507813 44.265625 Z M 64.96875 49.328125 C 64.554688 49.320313 64.179688 49.566406 64.019531 49.949219 C 63.808594 50.457031 64.050781 51.042969 64.5625 51.253906 C 65.074219 51.464844 65.65625 51.222656 65.871094 50.714844 C 66.082031 50.203125 65.839844 49.617188 65.328125 49.40625 C 65.214844 49.359375 65.089844 49.332031 64.96875 49.328125 Z M 15.0625 49.332031 C 14.929688 49.332031 14.796875 49.355469 14.671875 49.40625 C 14.429688 49.507813 14.234375 49.703125 14.132813 49.949219 C 14.03125 50.195313 14.03125 50.46875 14.128906 50.714844 C 14.34375 51.226563 14.925781 51.46875 15.4375 51.253906 C 15.683594 51.15625 15.878906 50.960938 15.980469 50.714844 C 16.082031 50.46875 16.082031 50.195313 15.980469 49.949219 C 15.828125 49.578125 15.464844 49.335938 15.0625 49.332031 Z M 62.46875 54 C 62.128906 53.992188 61.808594 54.160156 61.621094 54.441406 C 61.3125 54.902344 61.4375 55.519531 61.894531 55.828125 C 62.113281 55.976563 62.386719 56.03125 62.644531 55.976563 C 62.90625 55.925781 63.136719 55.773438 63.28125 55.550781 C 63.589844 55.09375 63.464844 54.472656 63.003906 54.167969 C 62.847656 54.058594 62.660156 54 62.46875 54 Z M 17.5625 54 C 17.359375 53.996094 17.164063 54.054688 16.996094 54.167969 C 16.539063 54.476563 16.414063 55.09375 16.71875 55.554688 C 17.027344 56.011719 17.648438 56.136719 18.109375 55.828125 C 18.566406 55.523438 18.691406 54.902344 18.382813 54.441406 C 18.199219 54.167969 17.890625 54.003906 17.5625 54 Z M 67.445313 54.410156 L 67.257813 54.777344 L 67.25 54.796875 L 66.507813 56.078125 L 66.5 56.09375 L 65.699219 57.34375 L 65.691406 57.351563 L 64.859375 58.527344 L 64.828125 58.566406 L 63.90625 59.734375 L 63.195313 60.554688 L 64.707031 61.863281 L 65.449219 61.011719 L 65.480469 60.972656 L 66.429688 59.765625 L 66.441406 59.746094 L 66.457031 59.726563 L 67.347656 58.46875 L 67.363281 58.453125 L 67.375 58.433594 L 68.207031 57.132813 L 68.222656 57.113281 L 68.234375 57.09375 L 69.003906 55.75 L 69.015625 55.730469 L 69.027344 55.707031 L 69.226563 55.324219 Z M 12.566406 54.4375 L 10.785156 55.347656 L 10.972656 55.707031 L 10.984375 55.730469 L 10.996094 55.75 L 11.765625 57.09375 L 11.777344 57.113281 L 11.792969 57.132813 L 12.625 58.433594 L 12.636719 58.453125 L 12.652344 58.46875 L 13.542969 59.726563 L 13.558594 59.746094 L 13.570313 59.765625 L 14.519531 60.972656 L 14.550781 61.011719 L 15.3125 61.890625 L 16.824219 60.578125 L 16.09375 59.734375 L 15.171875 58.566406 L 15.140625 58.527344 L 14.308594 57.351563 L 14.300781 57.34375 L 13.5 56.09375 L 13.492188 56.078125 L 12.75 54.796875 L 12.742188 54.777344 Z M 20.921875 58.09375 C 20.652344 58.089844 20.390625 58.195313 20.203125 58.386719 C 19.8125 58.773438 19.8125 59.410156 20.203125 59.796875 C 20.589844 60.1875 21.226563 60.1875 21.613281 59.796875 C 22.003906 59.410156 22.003906 58.773438 21.613281 58.386719 C 21.429688 58.199219 21.183594 58.09375 20.921875 58.09375 Z M 59.105469 58.09375 C 58.835938 58.089844 58.574219 58.195313 58.386719 58.386719 C 57.996094 58.773438 57.996094 59.410156 58.386719 59.796875 C 58.773438 60.1875 59.410156 60.1875 59.796875 59.796875 C 60.1875 59.410156 60.1875 58.773438 59.796875 58.386719 C 59.613281 58.199219 59.367188 58.09375 59.105469 58.09375 Z M 25.019531 61.449219 C 24.679688 61.441406 24.359375 61.609375 24.171875 61.890625 C 23.863281 62.351563 23.988281 62.972656 24.449219 63.28125 C 24.90625 63.585938 25.527344 63.460938 25.832031 63.003906 C 26.140625 62.542969 26.015625 61.925781 25.558594 61.617188 C 25.398438 61.511719 25.210938 61.449219 25.019531 61.449219 Z M 55.011719 61.449219 C 54.808594 61.445313 54.613281 61.503906 54.445313 61.613281 C 54.222656 61.761719 54.070313 61.992188 54.019531 62.253906 C 53.96875 62.511719 54.023438 62.785156 54.171875 63.003906 C 54.476563 63.460938 55.097656 63.585938 55.558594 63.28125 C 56.015625 62.972656 56.140625 62.351563 55.832031 61.890625 C 55.652344 61.617188 55.34375 61.449219 55.011719 61.449219 Z M 29.691406 63.941406 C 29.277344 63.933594 28.902344 64.179688 28.746094 64.5625 C 28.535156 65.070313 28.777344 65.65625 29.285156 65.867188 C 29.796875 66.078125 30.382813 65.835938 30.59375 65.328125 C 30.804688 64.816406 30.5625 64.230469 30.050781 64.019531 C 29.9375 63.972656 29.816406 63.945313 29.691406 63.941406 Z M 50.339844 63.941406 C 50.207031 63.941406 50.074219 63.96875 49.953125 64.019531 C 49.707031 64.121094 49.511719 64.316406 49.410156 64.558594 C 49.308594 64.804688 49.308594 65.082031 49.40625 65.328125 C 49.621094 65.835938 50.203125 66.078125 50.714844 65.867188 C 50.960938 65.765625 51.15625 65.570313 51.257813 65.328125 C 51.359375 65.082031 51.359375 64.804688 51.257813 64.5625 C 51.105469 64.1875 50.742188 63.945313 50.339844 63.941406 Z M 34.761719 65.480469 C 34.273438 65.46875 33.847656 65.808594 33.753906 66.285156 C 33.644531 66.828125 33.996094 67.351563 34.539063 67.460938 C 35.082031 67.570313 35.605469 67.21875 35.714844 66.675781 C 35.824219 66.132813 35.472656 65.609375 34.929688 65.5 C 34.875 65.488281 34.816406 65.480469 34.761719 65.480469 Z M 45.269531 65.484375 C 45.203125 65.480469 45.136719 65.488281 45.074219 65.5 C 44.53125 65.609375 44.179688 66.132813 44.285156 66.675781 C 44.339844 66.9375 44.492188 67.164063 44.710938 67.3125 C 44.933594 67.460938 45.203125 67.515625 45.464844 67.464844 C 45.722656 67.410156 45.953125 67.257813 46.101563 67.039063 C 46.246094 66.816406 46.300781 66.546875 46.25 66.285156 C 46.15625 65.820313 45.746094 65.484375 45.269531 65.484375 Z M 57.605469 65.511719 L 57.351563 65.691406 L 57.34375 65.699219 L 56.09375 66.5 L 56.078125 66.507813 L 54.796875 67.25 L 54.777344 67.257813 L 54.753906 67.269531 L 53.460938 67.933594 L 53.453125 67.9375 L 52.0625 68.566406 L 52.042969 68.574219 L 50.992188 68.988281 L 51.722656 70.847656 L 52.824219 70.417969 L 52.84375 70.40625 L 52.867188 70.394531 L 54.285156 69.753906 L 54.308594 69.746094 L 54.328125 69.734375 L 55.707031 69.027344 L 55.730469 69.015625 L 55.75 69.003906 L 57.09375 68.234375 L 57.113281 68.222656 L 57.132813 68.207031 L 58.433594 67.375 L 58.453125 67.363281 L 58.46875 67.347656 L 58.765625 67.140625 Z M 22.421875 65.53125 L 21.261719 67.160156 L 21.53125 67.347656 L 21.546875 67.363281 L 21.566406 67.375 L 22.867188 68.207031 L 22.886719 68.222656 L 22.90625 68.234375 L 24.25 69.003906 L 24.269531 69.015625 L 24.292969 69.027344 L 25.671875 69.734375 L 25.691406 69.746094 L 25.714844 69.753906 L 27.132813 70.394531 L 27.15625 70.40625 L 27.175781 70.417969 L 28.300781 70.859375 L 29.035156 69 L 27.957031 68.574219 L 27.9375 68.566406 L 26.546875 67.9375 L 26.539063 67.933594 L 25.246094 67.269531 L 25.222656 67.257813 L 25.203125 67.25 L 23.921875 66.507813 L 23.90625 66.5 L 22.65625 65.699219 L 22.648438 65.691406 Z M 40 66 C 39.449219 66 39 66.449219 39 67 C 39 67.550781 39.449219 68 40 68 C 40.550781 68 41 67.550781 41 67 C 41 66.449219 40.550781 66 40 66 Z M 43.746094 70.765625 L 43.152344 70.84375 L 43.144531 70.84375 L 41.582031 70.957031 L 41.570313 70.960938 L 40 71 L 38.429688 70.960938 L 38.417969 70.957031 L 36.855469 70.84375 L 36.847656 70.84375 L 36.285156 70.769531 L 36.03125 72.753906 L 36.601563 72.828125 L 36.625 72.828125 L 36.652344 72.832031 L 38.277344 72.953125 L 38.300781 72.957031 L 38.328125 72.957031 L 39.972656 73 L 40.027344 73 L 41.671875 72.957031 L 41.699219 72.957031 L 41.722656 72.953125 L 43.347656 72.832031 L 43.375 72.828125 L 43.398438 72.828125 L 43.996094 72.75 Z " fill="#ffffff"/></g></svg>
