<?xml version="1.0" encoding="iso-8859-1"?>
<!-- Generator: Adobe Illustrator 20.1.0, SVG Export Plug-In . SVG Version: 6.00 Build 0)  -->
<svg xmlns="http://www.w3.org/2000/svg" xmlns:xlink="http://www.w3.org/1999/xlink" version="1.1" id="&#1057;&#1083;&#1086;&#1081;_1" x="0px" y="0px" viewBox="0 0 64 64" style="enable-background:new 0 0 64 64;" xml:space="preserve">
<linearGradient id="SVGID_1__52516" gradientUnits="userSpaceOnUse" x1="32.0001" y1="12" x2="32.0001" y2="20.8759" spreadMethod="reflect">
	<stop offset="0" style="stop-color:#6DC7FF"/>
	<stop offset="1" style="stop-color:#E6ABFF"/>
</linearGradient>
<path style="fill:url(#SVGID_1__52516);" d="M36,16.911c0,1.36-0.68,2.56-1.712,3.288c-0.296-0.984-1.208-1.688-2.288-1.688  c-1.08,0-1.992,0.704-2.288,1.688C28.68,19.471,28,18.271,28,16.911c0-2.208,1.792-4,4-4S36,14.703,36,16.911z"/>
<linearGradient id="SVGID_2__52516" gradientUnits="userSpaceOnUse" x1="32" y1="4" x2="32" y2="59.7522" spreadMethod="reflect">
	<stop offset="0" style="stop-color:#1A6DFF"/>
	<stop offset="1" style="stop-color:#C822FF"/>
</linearGradient>
<rect x="31" y="6" style="fill:url(#SVGID_2__52516);" width="2" height="4"/>
<linearGradient id="SVGID_3__52516" gradientUnits="userSpaceOnUse" x1="41" y1="4" x2="41" y2="59.7522" spreadMethod="reflect">
	<stop offset="0" style="stop-color:#1A6DFF"/>
	<stop offset="1" style="stop-color:#C822FF"/>
</linearGradient>
<rect x="39" y="16" style="fill:url(#SVGID_3__52516);" width="4" height="2"/>
<linearGradient id="SVGID_4__52516" gradientUnits="userSpaceOnUse" x1="23" y1="4" x2="23" y2="59.7522" spreadMethod="reflect">
	<stop offset="0" style="stop-color:#1A6DFF"/>
	<stop offset="1" style="stop-color:#C822FF"/>
</linearGradient>
<rect x="21" y="16" style="fill:url(#SVGID_4__52516);" width="4" height="2"/>
<linearGradient id="SVGID_5__52516" gradientUnits="userSpaceOnUse" x1="38.364" y1="4" x2="38.364" y2="59.7522" spreadMethod="reflect">
	<stop offset="0" style="stop-color:#1A6DFF"/>
	<stop offset="1" style="stop-color:#C822FF"/>
</linearGradient>
<polygon style="fill:url(#SVGID_5__52516);" points="37.657,12.758 36.243,11.344 39.071,8.515 40.485,9.929 "/>
<linearGradient id="SVGID_6__52516" gradientUnits="userSpaceOnUse" x1="25.6365" y1="4" x2="25.6365" y2="59.7522" spreadMethod="reflect">
	<stop offset="0" style="stop-color:#1A6DFF"/>
	<stop offset="1" style="stop-color:#C822FF"/>
</linearGradient>
<polygon style="fill:url(#SVGID_6__52516);" points="26.344,12.758 23.515,9.929 24.929,8.515 27.758,11.344 "/>
<linearGradient id="SVGID_7__52516" gradientUnits="userSpaceOnUse" x1="32" y1="4" x2="32" y2="59.7522" spreadMethod="reflect">
	<stop offset="0" style="stop-color:#1A6DFF"/>
	<stop offset="1" style="stop-color:#C822FF"/>
</linearGradient>
<path style="fill:url(#SVGID_7__52516);" d="M34,58h-4c-1.103,0-2-0.897-2-2V44h-9.013c-0.711,0-1.351-0.369-1.711-0.987  c-0.365-0.627-0.371-1.38-0.013-2.012l12.168-21.493C29.966,18.564,30.926,18.001,32,18c1.074,0,2.035,0.563,2.569,1.507  l12.168,21.494c0.357,0.632,0.353,1.384-0.014,2.012C46.363,43.631,45.724,44,45.013,44H36v12C36,57.103,35.103,58,34,58z   M32.001,20c-0.166,0-0.577,0.049-0.829,0.493L19.003,41.986L30,42v14h4V42h11.013l0.854-0.507l-0.87,0.492L32.829,20.492  C32.577,20.048,32.166,20,32.001,20z"/>
<linearGradient id="SVGID_8__52516" gradientUnits="userSpaceOnUse" x1="32.0001" y1="25.25" x2="32.0001" y2="40.0529" spreadMethod="reflect">
	<stop offset="0" style="stop-color:#6DC7FF"/>
	<stop offset="1" style="stop-color:#E6ABFF"/>
</linearGradient>
<path style="fill:url(#SVGID_8__52516);" d="M38.28,39H25.72c-0.766,0-1.247-0.828-0.867-1.493l6.28-10.99c0.383-0.671,1.35-0.671,1.733,0  l6.28,10.99C39.527,38.172,39.047,39,38.28,39z"/>
</svg>
