<?xml version="1.0" encoding="iso-8859-1"?>
<!-- Generator: Adobe Illustrator 20.1.0, SVG Export Plug-In . SVG Version: 6.00 Build 0)  -->
<svg xmlns="http://www.w3.org/2000/svg" xmlns:xlink="http://www.w3.org/1999/xlink" version="1.1" id="&#1057;&#1083;&#1086;&#1081;_1" x="0px" y="0px" viewBox="0 0 64 64" style="enable-background:new 0 0 64 64;" xml:space="preserve">
<linearGradient id="SVGID_1__43998" gradientUnits="userSpaceOnUse" x1="18" y1="32.8333" x2="18" y2="39.3381" spreadMethod="reflect">
	<stop offset="0" style="stop-color:#6DC7FF"/>
	<stop offset="1" style="stop-color:#E6ABFF"/>
</linearGradient>
<path style="fill:url(#SVGID_1__43998);" d="M22,39h-8v-5c0-0.552,0.448-1,1-1h6c0.552,0,1,0.448,1,1V39z"/>
<linearGradient id="SVGID_2__43998" gradientUnits="userSpaceOnUse" x1="43" y1="6.8333" x2="43" y2="58.4134" spreadMethod="reflect">
	<stop offset="0" style="stop-color:#1A6DFF"/>
	<stop offset="1" style="stop-color:#C822FF"/>
</linearGradient>
<rect x="40" y="15" style="fill:url(#SVGID_2__43998);" width="6" height="2"/>
<linearGradient id="SVGID_3__43998" gradientUnits="userSpaceOnUse" x1="41" y1="6.8333" x2="41" y2="58.4134" spreadMethod="reflect">
	<stop offset="0" style="stop-color:#1A6DFF"/>
	<stop offset="1" style="stop-color:#C822FF"/>
</linearGradient>
<rect x="40" y="21" style="fill:url(#SVGID_3__43998);" width="2" height="12"/>
<linearGradient id="SVGID_4__43998" gradientUnits="userSpaceOnUse" x1="45" y1="6.8333" x2="45" y2="58.4134" spreadMethod="reflect">
	<stop offset="0" style="stop-color:#1A6DFF"/>
	<stop offset="1" style="stop-color:#C822FF"/>
</linearGradient>
<rect x="44" y="21" style="fill:url(#SVGID_4__43998);" width="2" height="12"/>
<linearGradient id="SVGID_5__43998" gradientUnits="userSpaceOnUse" x1="32" y1="6.8333" x2="32" y2="58.4134" spreadMethod="reflect">
	<stop offset="0" style="stop-color:#1A6DFF"/>
	<stop offset="1" style="stop-color:#C822FF"/>
</linearGradient>
<path style="fill:url(#SVGID_5__43998);" d="M53,15h-3V9c0-1.654-1.346-3-3-3h-8c-1.654,0-3,1.346-3,3v6H11c-1.654,0-3,1.346-3,3v34  c0,1.654,1.346,3,3,3v1c0,1.103,0.897,2,2,2h38c1.103,0,2-0.897,2-2v-1c1.654,0,3-1.346,3-3V18C56,16.346,54.654,15,53,15z M54,18v3  h-4v-4h3C53.552,17,54,17.448,54,18z M45.348,42.203C44.668,42.073,43.889,42,43,42c-0.889,0-1.667,0.073-2.348,0.203l-2.345-3.127  C38.91,38.637,40.254,38,43,38s4.09,0.637,4.693,1.076L45.348,42.203z M38,9c0-0.552,0.448-1,1-1h8c0.552,0,1,0.448,1,1v7v20.941  C46.952,36.431,45.368,36,43,36s-3.952,0.431-5,0.941V16V9z M11,17h25v4H10v-3C10,17.448,10.448,17,11,17z M51,56H13v-1h38V56z   M53,53H11c-0.552,0-1-0.448-1-1V23h26v16.333l5.399,7.2c0.382,0.509,0.965,0.801,1.601,0.801s1.219-0.292,1.6-0.801l5.4-7.2V23h4  v29C54,52.552,53.552,53,53,53z"/>
<linearGradient id="SVGID_6__43998" gradientUnits="userSpaceOnUse" x1="23" y1="6.8333" x2="23" y2="58.4134" spreadMethod="reflect">
	<stop offset="0" style="stop-color:#1A6DFF"/>
	<stop offset="1" style="stop-color:#C822FF"/>
</linearGradient>
<rect x="14" y="45" style="fill:url(#SVGID_6__43998);" width="18" height="2"/>
<linearGradient id="SVGID_7__43998" gradientUnits="userSpaceOnUse" x1="23" y1="6.8333" x2="23" y2="58.4134" spreadMethod="reflect">
	<stop offset="0" style="stop-color:#1A6DFF"/>
	<stop offset="1" style="stop-color:#C822FF"/>
</linearGradient>
<rect x="14" y="41" style="fill:url(#SVGID_7__43998);" width="18" height="2"/>
<linearGradient id="SVGID_8__43998" gradientUnits="userSpaceOnUse" x1="18" y1="6.8333" x2="18" y2="58.4134" spreadMethod="reflect">
	<stop offset="0" style="stop-color:#1A6DFF"/>
	<stop offset="1" style="stop-color:#C822FF"/>
</linearGradient>
<rect x="14" y="29" style="fill:url(#SVGID_8__43998);" width="8" height="2"/>
<linearGradient id="SVGID_9__43998" gradientUnits="userSpaceOnUse" x1="28" y1="6.8333" x2="28" y2="58.4134" spreadMethod="reflect">
	<stop offset="0" style="stop-color:#1A6DFF"/>
	<stop offset="1" style="stop-color:#C822FF"/>
</linearGradient>
<rect x="24" y="29" style="fill:url(#SVGID_9__43998);" width="8" height="2"/>
<linearGradient id="SVGID_10__43998" gradientUnits="userSpaceOnUse" x1="28" y1="6.8333" x2="28" y2="58.4134" spreadMethod="reflect">
	<stop offset="0" style="stop-color:#1A6DFF"/>
	<stop offset="1" style="stop-color:#C822FF"/>
</linearGradient>
<rect x="24" y="37" style="fill:url(#SVGID_10__43998);" width="8" height="2"/>
<linearGradient id="SVGID_11__43998" gradientUnits="userSpaceOnUse" x1="28" y1="6.8333" x2="28" y2="58.4134" spreadMethod="reflect">
	<stop offset="0" style="stop-color:#1A6DFF"/>
	<stop offset="1" style="stop-color:#C822FF"/>
</linearGradient>
<rect x="24" y="33" style="fill:url(#SVGID_11__43998);" width="8" height="2"/>
</svg>
