<?xml version="1.0" encoding="UTF-8"?>
<svg xmlns="http://www.w3.org/2000/svg" xmlns:xlink="http://www.w3.org/1999/xlink" viewBox="0 0 32 32" version="1.1" fill="#807e7e"><g id="surface1" fill="#807e7e"><path style=" " d="M 2 5 L 2 21 L 30 21 L 30 5 Z M 5.914063 7 L 26.089844 7 C 26.03125 7.160156 26 7.328125 26 7.5 C 26 8.328125 26.671875 9 27.5 9 C 27.671875 9 27.839844 8.96875 28 8.914063 L 28 17.089844 C 27.839844 17.03125 27.671875 17 27.5 17 C 26.671875 17 26 17.671875 26 18.5 C 26 18.671875 26.03125 18.839844 26.089844 19 L 5.914063 19 C 5.96875 18.839844 6 18.671875 6 18.5 C 6 17.671875 5.328125 17 4.5 17 C 4.328125 17 4.160156 17.03125 4 17.089844 L 4 8.914063 C 4.160156 8.96875 4.328125 9 4.5 9 C 5.328125 9 6 8.328125 6 7.5 C 6 7.328125 5.96875 7.160156 5.914063 7 Z M 16 9 C 13.789063 9 12 10.789063 12 13 L 12 14 L 12.203125 14 C 12.652344 15.710938 14.144531 17 16 17 C 17.855469 17 19.347656 15.710938 19.796875 14 L 20 14 L 20 13 C 20 10.789063 18.210938 9 16 9 Z M 16 11 C 17.191406 11 18 11.808594 18 13 C 18 14.191406 17.191406 15 16 15 C 14.808594 15 14 14.191406 14 13 C 14 11.808594 14.808594 11 16 11 Z M 9 11.5 C 8.171875 11.5 7.5 12.171875 7.5 13 C 7.5 13.828125 8.171875 14.5 9 14.5 C 9.828125 14.5 10.5 13.828125 10.5 13 C 10.5 12.171875 9.828125 11.5 9 11.5 Z M 23 11.5 C 22.171875 11.5 21.5 12.171875 21.5 13 C 21.5 13.828125 22.171875 14.5 23 14.5 C 23.828125 14.5 24.5 13.828125 24.5 13 C 24.5 12.171875 23.828125 11.5 23 11.5 Z M 2 22 L 2 24 L 3.003906 24 C 3.003906 24 17.339844 23.960938 27.746094 26.71875 L 29 27.046875 L 29 22 L 27 22 L 27 23.089844 C 26.839844 23.03125 26.671875 23 26.5 23 C 25.824219 23 25.230469 23.457031 25.050781 24.109375 C 14.777344 21.988281 3.011719 22 3 22 Z " fill="#807e7e"/></g></svg>
