<?xml version="1.0" encoding="utf-8"?>
<svg xmlns="http://www.w3.org/2000/svg" viewBox="0 0 32 32" fill="#807e7e"><path style="line-height:normal;text-indent:0;text-align:start;text-decoration-line:none;text-decoration-style:solid;text-decoration-color:#000;text-transform:none;block-progression:tb;isolation:auto;mix-blend-mode:normal" d="M 16 3.9023438 L 4 9.3554688 L 4 13 L 5 13 L 7 13 L 7 24 L 5 24 L 5 26 L 4 26 L 4 28 L 15 28 L 15 29 C 15 30.64497 16.35503 32 18 32 L 29 32 C 30.64497 32 32 30.64497 32 29 L 32 23 C 32 21.35503 30.64497 20 29 20 L 25 20 L 25 13 L 28 13 L 28 9.3554688 L 16 3.9023438 z M 16 6.0976562 L 26 10.644531 L 26 11 L 6 11 L 6 10.644531 L 16 6.0976562 z M 9 13 L 11 13 L 11 24 L 9 24 L 9 13 z M 13 13 L 15 13 L 15 23 L 15 24 L 13 24 L 13 13 z M 17 13 L 19 13 L 19 20 L 18 20 C 17.648157 20 17.314892 20.07394 17 20.1875 L 17 13 z M 21 13 L 23 13 L 23 20 L 21 20 L 21 13 z M 18 22 L 29 22 C 29.56503 22 30 22.43497 30 23 L 30 24 L 18 24 L 18 26 L 30 26 L 30 29 C 30 29.56503 29.56503 30 29 30 L 18 30 C 17.43497 30 17 29.56503 17 29 L 17 23 C 17 22.43497 17.43497 22 18 22 z" fill="#807e7e"/></svg>
