<?xml version="1.0" encoding="UTF-8"?>
<svg xmlns="http://www.w3.org/2000/svg" xmlns:xlink="http://www.w3.org/1999/xlink" viewBox="0 0 32 32" version="1.1" fill="#807e7e"><g id="surface1" fill="#807e7e"><path style=" " d="M 20 4.03125 L 6.34375 17.6875 L 6.28125 17.96875 L 4.25 26.5625 L 3.875 28.125 L 5.4375 27.75 L 14.03125 25.71875 L 14.3125 25.65625 L 27.96875 12 L 26.5625 10.59375 L 14.5625 22.5625 C 14.132813 21.714844 13.292969 20.789063 11.90625 20.09375 C 11.289063 18.722656 10.351563 17.816406 9.46875 17.40625 L 21.40625 5.4375 Z M 8.09375 19.0625 C 8.230469 19.097656 8.394531 19.148438 8.5625 19.21875 C 9.171875 19.480469 9.867188 19.960938 10.28125 21.15625 L 10.40625 21.5625 L 10.8125 21.75 C 12.125 22.328125 12.613281 23.015625 12.84375 23.5625 C 12.898438 23.6875 12.941406 23.808594 12.96875 23.90625 L 9 24.84375 L 7.15625 23 Z " fill="#807e7e"/></g></svg>
