<?xml version="1.0" encoding="UTF-8"?>
<svg xmlns="http://www.w3.org/2000/svg" xmlns:xlink="http://www.w3.org/1999/xlink" viewBox="0 0 32 32" version="1.1" fill="#807e7e"><g id="surface1" fill="#807e7e"><path style=" " d="M 6 3 L 6 29 L 16.8125 29 L 18.8125 27 L 8 27 L 8 5 L 18 5 L 18 11 L 24 11 L 24 16.40625 C 24.601563 16.207031 25.300781 16 26 16 L 26 9.59375 L 19.40625 3 Z M 20 6.40625 L 22.59375 9 L 20 9 Z M 26.5 18 C 23.472656 18 21 20.472656 21 23.5 C 21 24.660156 21.351563 25.734375 21.96875 26.625 L 18.28125 30.28125 L 19.71875 31.71875 L 23.375 28.03125 C 24.265625 28.648438 25.339844 29 26.5 29 C 29.527344 29 32 26.527344 32 23.5 C 32 20.472656 29.527344 18 26.5 18 Z M 26.5 20 C 28.445313 20 30 21.554688 30 23.5 C 30 25.445313 28.445313 27 26.5 27 C 24.554688 27 23 25.445313 23 23.5 C 23 21.554688 24.554688 20 26.5 20 Z " fill="#807e7e"/></g></svg>
