<?xml version="1.0" encoding="UTF-8"?>
<svg xmlns="http://www.w3.org/2000/svg" xmlns:xlink="http://www.w3.org/1999/xlink" viewBox="0 0 32 32" version="1.1" fill="#807e7e"><g id="surface1" fill="#807e7e"><path style=" " d="M 5 6 C 3.355469 6 2 7.355469 2 9 L 2 23 C 2 24.644531 3.355469 26 5 26 L 27 26 C 28.644531 26 30 24.644531 30 23 L 30 9 C 30 7.355469 28.644531 6 27 6 Z M 5 8 L 27 8 C 27.566406 8 28 8.433594 28 9 L 28 23 C 28 23.566406 27.566406 24 27 24 L 5 24 C 4.433594 24 4 23.566406 4 23 L 4 9 C 4 8.433594 4.433594 8 5 8 Z M 21 10 C 18.800781 10 17 11.800781 17 14 C 17 15.113281 17.476563 16.117188 18.21875 16.84375 C 16.886719 17.746094 16 19.28125 16 21 L 18 21 C 18 19.332031 19.332031 18 21 18 C 22.667969 18 24 19.332031 24 21 L 26 21 C 26 19.28125 25.113281 17.746094 23.78125 16.84375 C 24.523438 16.117188 25 15.113281 25 14 C 25 11.800781 23.199219 10 21 10 Z M 21 12 C 22.117188 12 23 12.882813 23 14 C 23 15.117188 22.117188 16 21 16 C 19.882813 16 19 15.117188 19 14 C 19 12.882813 19.882813 12 21 12 Z M 7 14 L 7 18 L 12 18 L 12 14 Z " fill="#807e7e"/></g></svg>
