<?xml version="1.0" encoding="iso-8859-1"?>
<!-- Generator: Adobe Illustrator 20.1.0, SVG Export Plug-In . SVG Version: 6.00 Build 0)  -->
<svg xmlns="http://www.w3.org/2000/svg" xmlns:xlink="http://www.w3.org/1999/xlink" version="1.1" id="&#1057;&#1083;&#1086;&#1081;_1" x="0px" y="0px" viewBox="0 0 64 64" style="enable-background:new 0 0 64 64;" xml:space="preserve">
<linearGradient id="SVGID_1__46154" gradientUnits="userSpaceOnUse" x1="32" y1="5.1667" x2="32" y2="58.6877" spreadMethod="reflect">
	<stop offset="0" style="stop-color:#1A6DFF"/>
	<stop offset="1" style="stop-color:#C822FF"/>
</linearGradient>
<path style="fill:url(#SVGID_1__46154);" d="M54,27.146c0-1.494-1-2.938-2.728-4.004c0.979-1.533,1.244-3.073,0.718-4.342  c-0.573-1.381-2.051-2.333-4.055-2.656c0.317-1.789-0.028-3.313-1.001-4.285c-0.925-0.923-2.38-1.283-4.081-1.03  c-0.446-1.533-1.31-2.645-2.449-3.116C39.079,7.16,37.42,7.49,35.82,8.577C35.048,7.516,33.636,6,31.879,6  c-1.58,0-3.019,1.478-3.854,2.548C26.739,7.61,24.91,7.11,23.46,7.712c-1.294,0.535-2.162,1.869-2.502,3.809  c-1.874-0.382-3.509-0.047-4.514,0.956c-0.883,0.882-1.249,2.213-1.065,3.813c-1.666,0.42-2.87,1.307-3.369,2.511  c-0.526,1.27-0.262,2.809,0.719,4.342C11,24.207,10,25.65,10,27.146c0,1.373,0.834,2.694,2.327,3.735  c-1.188,1.645-1.559,3.361-0.987,4.743c0.527,1.269,1.804,2.17,3.581,2.562c-0.468,1.975-0.154,3.702,0.904,4.758  c1.071,1.07,2.175,1.26,4.175,1.014v10.014C20,56.192,21.807,58,24.029,58c0.845,0,1.656-0.26,2.342-0.751l4.451-3.178  c0.705-0.504,1.652-0.504,2.357,0l4.45,3.178C38.316,57.74,39.126,58,39.971,58C42.193,58,44,56.192,44,53.971v-9.326  c1,0.11,2.728-0.256,3.555-1.082c1.325-1.323,1.298-3.432,0.772-5.242c1.825-0.241,3.645-1.034,4.333-2.697  c0.572-1.381,0.202-3.097-0.986-4.742C53.166,29.84,54,28.52,54,27.146z M39.971,56c-0.426,0-0.833-0.131-1.179-0.378l-4.449-3.178  c-1.401-1.001-3.282-1.003-4.684,0l-4.45,3.178C24.862,55.869,24.455,56,24.03,56C22.911,56,22,55.09,22,53.971v-6.926  c0,0.558,0.924,1.01,1.581,1.282c1.315,0.542,2.956,0.224,4.546-0.85C29.183,49.076,30.578,50,32,50  c1.423,0,2.817-0.924,3.874-2.522c1.589,1.073,3.23,1.392,4.545,0.85c0.619-0.256,1.581-0.706,1.581-1.3v6.944  C42,55.09,41.09,56,39.971,56z M49.435,31.306c1.182,1.263,1.735,2.69,1.378,3.552c-0.388,0.938-1.981,1.581-3.876,1.545  l-1.589-0.024l0.665,1.443c0.699,1.517,0.968,3.489,0.13,4.326c-0.636,0.636-2.06,0.699-3.632,0.152l-1.247-0.432l-0.078,1.317  c-0.099,1.657-0.699,2.949-1.531,3.294c-0.834,0.346-2.173-0.146-3.414-1.248l-0.987-0.876l-0.576,1.188  C33.952,47.035,32.901,48,32,48c-0.9,0-1.951-0.965-2.676-2.457l-0.576-1.188l-0.987,0.876c-1.24,1.103-2.579,1.593-3.414,1.248  c-1.096-0.454-1.604-2.38-1.538-4.048l0.063-1.588l-1.458,0.631c-1.738,0.753-3.454,0.772-4.174,0.055  c-0.67-0.67-0.704-2.165-0.087-3.809l0.464-1.237l-1.317-0.11c-1.586-0.133-2.778-0.714-3.111-1.516  c-0.356-0.861,0.197-2.289,1.379-3.552l0.903-0.967l-1.176-0.605C12.879,29.004,12,28.013,12,27.146  c0-0.947,1.034-2.029,2.635-2.756l1.205-0.547l-0.854-1.01c-1.028-1.214-1.46-2.466-1.128-3.268c0.31-0.747,1.358-1.303,2.806-1.484  l1.111-0.14l-0.265-1.089c-0.32-1.316-0.19-2.424,0.349-2.962c0.635-0.634,2.061-0.698,3.632-0.152l1.247,0.432l0.078-1.317  c0.104-1.766,0.619-2.966,1.41-3.293c0.865-0.361,2.439,0.195,3.174,1.121l0.88,1.106l0.751-1.198C29.686,9.545,31.043,8,31.879,8  c1.078,0,2.363,1.696,2.817,2.518l0.603,1.091l0.935-0.822c1.237-1.088,2.578-1.573,3.405-1.227c0.71,0.294,1.258,1.268,1.465,2.604  l0.172,1.107l1.081-0.297c1.406-0.385,2.591-0.274,3.164,0.299c0.614,0.615,0.696,1.937,0.213,3.45l-0.403,1.26l1.322,0.044  c1.729,0.059,3.133,0.677,3.49,1.539c0.332,0.802-0.1,2.054-1.127,3.269l-0.854,1.009l1.204,0.547  c1.6,0.728,2.634,1.809,2.634,2.756c0,0.867-0.879,1.859-2.293,2.588l-1.176,0.605L49.435,31.306z"/>
<linearGradient id="SVGID_2__46154" gradientUnits="userSpaceOnUse" x1="24" y1="22.1667" x2="24" y2="39.1315" spreadMethod="reflect">
	<stop offset="0" style="stop-color:#6DC7FF"/>
	<stop offset="1" style="stop-color:#E6ABFF"/>
</linearGradient>
<path style="fill:url(#SVGID_2__46154);" d="M26,37c0,0.552-0.448,1-1,1h-2c-0.552,0-1-0.448-1-1V27c0-0.552,0.448-1,1-1h2  c0.552,0,1,0.448,1,1V37z"/>
<linearGradient id="SVGID_3__46154" gradientUnits="userSpaceOnUse" x1="35" y1="22.1667" x2="35" y2="39.1315" spreadMethod="reflect">
	<stop offset="0" style="stop-color:#6DC7FF"/>
	<stop offset="1" style="stop-color:#E6ABFF"/>
</linearGradient>
<path style="fill:url(#SVGID_3__46154);" d="M36,26c-0.552,0-1-0.448-1-1v-4c0-1.649-1.33-2.987-2.976-3C31.464,17.996,31,18.44,31,19  v4.558c0,0.861-0.551,1.625-1.368,1.898l-0.949,0.316C28.275,25.908,28,26.29,28,26.72V37c0,0.552,0.448,1,1,1h7  c3.314,0,6-2.687,6-6v-4c0-1.105-0.895-2-2-2H36z"/>
</svg>
