<?xml version="1.0" encoding="iso-8859-1"?>
<!-- Generator: Adobe Illustrator 20.1.0, SVG Export Plug-In . SVG Version: 6.00 Build 0)  -->
<svg xmlns="http://www.w3.org/2000/svg" xmlns:xlink="http://www.w3.org/1999/xlink" version="1.1" id="&#1057;&#1083;&#1086;&#1081;_1" x="0px" y="0px" viewBox="0 0 64 64" style="enable-background:new 0 0 64 64;" xml:space="preserve">
<linearGradient id="SVGID_1__48314" gradientUnits="userSpaceOnUse" x1="32" y1="16.75" x2="32" y2="56.9028" spreadMethod="reflect">
	<stop offset="0" style="stop-color:#1A6DFF"/>
	<stop offset="1" style="stop-color:#C822FF"/>
</linearGradient>
<path style="fill:url(#SVGID_1__48314);" d="M55,18H43v2h12c0.561,0,1,0.42,1,0.956v28C56,49.521,55.542,50,55,50H9  c-0.542,0-1-0.479-1-1.044v-28C8,20.42,8.439,20,9,20h12v-2H9c-1.682,0-3,1.299-3,2.956v28c0,1.321,0.839,2.437,2,2.857v1.143  C8,54.635,9.346,56,11,56h42c1.654,0,3-1.365,3-3.044v-1.143c1.161-0.42,2-1.536,2-2.857v-28C58,19.299,56.682,18,55,18z M53,54H11  c-0.542,0-1-0.479-1-1.044V52h44v0.956C54,53.521,53.542,54,53,54z"/>
<linearGradient id="SVGID_2__48314" gradientUnits="userSpaceOnUse" x1="32" y1="16.75" x2="32" y2="56.9028" spreadMethod="reflect">
	<stop offset="0" style="stop-color:#1A6DFF"/>
	<stop offset="1" style="stop-color:#C822FF"/>
</linearGradient>
<path style="fill:url(#SVGID_2__48314);" d="M47,48H16v-1c0-2.796-2.243-5-5-5h-1V28h1c2.36,0,5-2.155,5-5.011v-1.006L21,22v2l-3.08-0.006  c-0.469,2.959-2.956,5.439-5.92,5.905v10.128c3.073,0.442,5.507,2.891,5.934,5.973H46.07c0.437-3.09,2.866-5.526,5.93-5.967V29.889  c-2.965-0.464-5.453-2.938-5.921-5.889H43v-2h5v1c0,2.345,2.138,5,5,5h1v13.956l-1,0.006c-2.757,0-5,2.245-5,5.005v1L47,48z"/>
<linearGradient id="SVGID_3__48314" gradientUnits="userSpaceOnUse" x1="32" y1="6.25" x2="32" y2="34.2522" spreadMethod="reflect">
	<stop offset="0" style="stop-color:#6DC7FF"/>
	<stop offset="1" style="stop-color:#E6ABFF"/>
</linearGradient>
<path style="fill:url(#SVGID_3__48314);" d="M39,20h-3c-0.552,0-1,0.426-1,0.979v11.019C35,32.551,34.552,33,34,33h-4  c-0.552,0-1-0.449-1-1.002V20.979C29,20.426,28.552,20,28,20h-3c-0.824,0-1.294-1.072-0.8-1.815l6.196-9.319  c0.763-1.147,2.445-1.149,3.208-0.003l6.196,9.323C40.294,18.929,39.824,20,39,20z"/>
<linearGradient id="SVGID_4__48314" gradientUnits="userSpaceOnUse" x1="32" y1="16.75" x2="32" y2="56.9028" spreadMethod="reflect">
	<stop offset="0" style="stop-color:#1A6DFF"/>
	<stop offset="1" style="stop-color:#C822FF"/>
</linearGradient>
<path style="fill:url(#SVGID_4__48314);" d="M32,42c-3.86,0-7-3-7-7h2c0,3,2.243,5,5,5s5-2,5-5h2C39,39,35.86,42,32,42z"/>
</svg>
